<?xml version="1.0" encoding="utf-8" standalone="no"?>
<!DOCTYPE svg PUBLIC "-//W3C//DTD SVG 1.1//EN"
  "http://www.w3.org/Graphics/SVG/1.1/DTD/svg11.dtd">
<!-- Created with matplotlib (https://matplotlib.org/) -->
<svg height="144pt" version="1.1" viewBox="0 0 204 144" width="204pt" xmlns="http://www.w3.org/2000/svg" xmlns:xlink="http://www.w3.org/1999/xlink">
 <metadata>
  <rdf:RDF xmlns:cc="http://creativecommons.org/ns#" xmlns:dc="http://purl.org/dc/elements/1.1/" xmlns:rdf="http://www.w3.org/1999/02/22-rdf-syntax-ns#">
   <cc:Work>
    <dc:type rdf:resource="http://purl.org/dc/dcmitype/StillImage"/>
    <dc:date>2022-01-10T10:19:29.077148</dc:date>
    <dc:format>image/svg+xml</dc:format>
    <dc:creator>
     <cc:Agent>
      <dc:title>Matplotlib v3.3.4, https://matplotlib.org/</dc:title>
     </cc:Agent>
    </dc:creator>
   </cc:Work>
  </rdf:RDF>
 </metadata>
 <defs>
  <style type="text/css">*{stroke-linecap:butt;stroke-linejoin:round;}</style>
 </defs>
 <g id="figure_1">
  <g id="patch_1">
   <path d="M 0 144 
L 204 144 
L 204 0 
L 0 0 
z
" style="fill:none;"/>
  </g>
  <g id="axes_1">
   <g id="patch_2">
    <path d="M 25.5 126 
L 183.6 126 
L 183.6 17.28 
L 25.5 17.28 
z
" style="fill:#ffffff;"/>
   </g>
   <g id="patch_3">
    <path clip-path="url(#p77b816c77e)" d="M 41.31 28.741781 
L 51.85 28.741781 
L 51.85 73.822468 
L 41.31 73.822468 
z
" style="fill:#d62728;"/>
   </g>
   <g id="patch_4">
    <path clip-path="url(#p77b816c77e)" d="M 51.85 28.741781 
L 62.39 28.741781 
L 62.39 73.194567 
L 51.85 73.194567 
z
" style="fill:#ff7f0e;"/>
   </g>
   <g id="patch_5">
    <path clip-path="url(#p77b816c77e)" d="M 62.39 28.741781 
L 72.93 28.741781 
L 72.93 82.181784 
L 62.39 82.181784 
z
" style="fill:#2ca02c;"/>
   </g>
   <g id="patch_6">
    <path clip-path="url(#p77b816c77e)" d="M 72.93 28.741781 
L 83.47 28.741781 
L 83.47 28.741781 
L 72.93 28.741781 
z
" style="fill:#9467bd;"/>
   </g>
   <g id="patch_7">
    <path clip-path="url(#p77b816c77e)" d="M 83.47 28.741781 
L 94.01 28.741781 
L 94.01 83.468729 
L 83.47 83.468729 
z
" style="fill:#8c564b;"/>
   </g>
   <g id="patch_8">
    <path clip-path="url(#p77b816c77e)" d="M 94.01 28.741781 
L 104.55 28.741781 
L 104.55 112.036475 
L 94.01 112.036475 
z
" style="fill:#e377c2;"/>
   </g>
   <g id="patch_9">
    <path clip-path="url(#p77b816c77e)" d="M 104.55 28.741781 
L 115.09 28.741781 
L 115.09 28.741781 
L 104.55 28.741781 
z
" style="fill:#7f7f7f;"/>
   </g>
   <g id="patch_10">
    <path clip-path="url(#p77b816c77e)" d="M 115.09 28.741781 
L 125.63 28.741781 
L 125.63 96.711964 
L 115.09 96.711964 
z
" style="fill:#bcbd22;"/>
   </g>
   <g id="patch_11">
    <path clip-path="url(#p77b816c77e)" d="M 125.63 28.741781 
L 136.17 28.741781 
L 136.17 59.060059 
L 125.63 59.060059 
z
" style="fill:#17becf;"/>
   </g>
   <g id="patch_12">
    <path clip-path="url(#p77b816c77e)" d="M 136.17 28.741781 
L 146.71 28.741781 
L 146.71 28.741781 
L 136.17 28.741781 
z
" style="fill:#d62728;"/>
   </g>
   <g id="patch_13">
    <path clip-path="url(#p77b816c77e)" d="M 146.71 28.741781 
L 157.25 28.741781 
L 157.25 28.741781 
L 146.71 28.741781 
z
" style="fill:#ff7f0e;"/>
   </g>
   <g id="patch_14">
    <path clip-path="url(#p77b816c77e)" d="M 157.25 28.741781 
L 167.79 28.741781 
L 167.79 111.75623 
L 157.25 111.75623 
z
" style="fill:#2ca02c;"/>
   </g>
   <g id="matplotlib.axis_1"/>
   <g id="matplotlib.axis_2">
    <g id="ytick_1">
     <g id="line2d_1">
      <defs>
       <path d="M 0 0 
L -3.5 0 
" id="me67659b8c8" style="stroke:#000000;stroke-width:0.8;"/>
      </defs>
      <g>
       <use style="stroke:#000000;stroke-width:0.8;" x="25.5" xlink:href="#me67659b8c8" y="102.92631"/>
      </g>
     </g>
     <g id="text_1">
      <!-- −15 -->
      <g transform="translate(-2.604688 106.725529)scale(0.1 -0.1)">
       <defs>
        <path d="M 10.59375 35.5 
L 73.1875 35.5 
L 73.1875 27.203125 
L 10.59375 27.203125 
z
" id="DejaVuSans-8722"/>
        <path d="M 12.40625 8.296875 
L 28.515625 8.296875 
L 28.515625 63.921875 
L 10.984375 60.40625 
L 10.984375 69.390625 
L 28.421875 72.90625 
L 38.28125 72.90625 
L 38.28125 8.296875 
L 54.390625 8.296875 
L 54.390625 0 
L 12.40625 0 
z
" id="DejaVuSans-49"/>
        <path d="M 10.796875 72.90625 
L 49.515625 72.90625 
L 49.515625 64.59375 
L 19.828125 64.59375 
L 19.828125 46.734375 
Q 21.96875 47.46875 24.109375 47.828125 
Q 26.265625 48.1875 28.421875 48.1875 
Q 40.625 48.1875 47.75 41.5 
Q 54.890625 34.8125 54.890625 23.390625 
Q 54.890625 11.625 47.5625 5.09375 
Q 40.234375 -1.421875 26.90625 -1.421875 
Q 22.3125 -1.421875 17.546875 -0.640625 
Q 12.796875 0.140625 7.71875 1.703125 
L 7.71875 11.625 
Q 12.109375 9.234375 16.796875 8.0625 
Q 21.484375 6.890625 26.703125 6.890625 
Q 35.15625 6.890625 40.078125 11.328125 
Q 45.015625 15.765625 45.015625 23.390625 
Q 45.015625 31 40.078125 35.4375 
Q 35.15625 39.890625 26.703125 39.890625 
Q 22.75 39.890625 18.8125 39.015625 
Q 14.890625 38.140625 10.796875 36.28125 
z
" id="DejaVuSans-53"/>
       </defs>
       <use xlink:href="#DejaVuSans-8722"/>
       <use x="83.789062" xlink:href="#DejaVuSans-49"/>
       <use x="147.412109" xlink:href="#DejaVuSans-53"/>
      </g>
     </g>
    </g>
    <g id="ytick_2">
     <g id="line2d_2">
      <g>
       <use style="stroke:#000000;stroke-width:0.8;" x="25.5" xlink:href="#me67659b8c8" y="78.198134"/>
      </g>
     </g>
     <g id="text_2">
      <!-- −10 -->
      <g transform="translate(-2.604688 81.997353)scale(0.1 -0.1)">
       <defs>
        <path d="M 31.78125 66.40625 
Q 24.171875 66.40625 20.328125 58.90625 
Q 16.5 51.421875 16.5 36.375 
Q 16.5 21.390625 20.328125 13.890625 
Q 24.171875 6.390625 31.78125 6.390625 
Q 39.453125 6.390625 43.28125 13.890625 
Q 47.125 21.390625 47.125 36.375 
Q 47.125 51.421875 43.28125 58.90625 
Q 39.453125 66.40625 31.78125 66.40625 
z
M 31.78125 74.21875 
Q 44.046875 74.21875 50.515625 64.515625 
Q 56.984375 54.828125 56.984375 36.375 
Q 56.984375 17.96875 50.515625 8.265625 
Q 44.046875 -1.421875 31.78125 -1.421875 
Q 19.53125 -1.421875 13.0625 8.265625 
Q 6.59375 17.96875 6.59375 36.375 
Q 6.59375 54.828125 13.0625 64.515625 
Q 19.53125 74.21875 31.78125 74.21875 
z
" id="DejaVuSans-48"/>
       </defs>
       <use xlink:href="#DejaVuSans-8722"/>
       <use x="83.789062" xlink:href="#DejaVuSans-49"/>
       <use x="147.412109" xlink:href="#DejaVuSans-48"/>
      </g>
     </g>
    </g>
    <g id="ytick_3">
     <g id="line2d_3">
      <g>
       <use style="stroke:#000000;stroke-width:0.8;" x="25.5" xlink:href="#me67659b8c8" y="53.469957"/>
      </g>
     </g>
     <g id="text_3">
      <!-- −5 -->
      <g transform="translate(3.757812 57.269176)scale(0.1 -0.1)">
       <use xlink:href="#DejaVuSans-8722"/>
       <use x="83.789062" xlink:href="#DejaVuSans-53"/>
      </g>
     </g>
    </g>
    <g id="ytick_4">
     <g id="line2d_4">
      <g>
       <use style="stroke:#000000;stroke-width:0.8;" x="25.5" xlink:href="#me67659b8c8" y="28.741781"/>
      </g>
     </g>
     <g id="text_4">
      <!-- 0 -->
      <g transform="translate(12.1375 32.541)scale(0.1 -0.1)">
       <use xlink:href="#DejaVuSans-48"/>
      </g>
     </g>
    </g>
    <g id="text_5">
     <!-- HexR iModulon -->
     <g transform="translate(-22.537688 116.633437)rotate(-90)scale(0.12 -0.12)">
      <defs>
       <path d="M 9.8125 72.90625 
L 19.671875 72.90625 
L 19.671875 43.015625 
L 55.515625 43.015625 
L 55.515625 72.90625 
L 65.375 72.90625 
L 65.375 0 
L 55.515625 0 
L 55.515625 34.71875 
L 19.671875 34.71875 
L 19.671875 0 
L 9.8125 0 
z
" id="DejaVuSans-72"/>
       <path d="M 56.203125 29.59375 
L 56.203125 25.203125 
L 14.890625 25.203125 
Q 15.484375 15.921875 20.484375 11.0625 
Q 25.484375 6.203125 34.421875 6.203125 
Q 39.59375 6.203125 44.453125 7.46875 
Q 49.3125 8.734375 54.109375 11.28125 
L 54.109375 2.78125 
Q 49.265625 0.734375 44.1875 -0.34375 
Q 39.109375 -1.421875 33.890625 -1.421875 
Q 20.796875 -1.421875 13.15625 6.1875 
Q 5.515625 13.8125 5.515625 26.8125 
Q 5.515625 40.234375 12.765625 48.109375 
Q 20.015625 56 32.328125 56 
Q 43.359375 56 49.78125 48.890625 
Q 56.203125 41.796875 56.203125 29.59375 
z
M 47.21875 32.234375 
Q 47.125 39.59375 43.09375 43.984375 
Q 39.0625 48.390625 32.421875 48.390625 
Q 24.90625 48.390625 20.390625 44.140625 
Q 15.875 39.890625 15.1875 32.171875 
z
" id="DejaVuSans-101"/>
       <path d="M 54.890625 54.6875 
L 35.109375 28.078125 
L 55.90625 0 
L 45.3125 0 
L 29.390625 21.484375 
L 13.484375 0 
L 2.875 0 
L 24.125 28.609375 
L 4.6875 54.6875 
L 15.28125 54.6875 
L 29.78125 35.203125 
L 44.28125 54.6875 
z
" id="DejaVuSans-120"/>
       <path d="M 44.390625 34.1875 
Q 47.5625 33.109375 50.5625 29.59375 
Q 53.5625 26.078125 56.59375 19.921875 
L 66.609375 0 
L 56 0 
L 46.6875 18.703125 
Q 43.0625 26.03125 39.671875 28.421875 
Q 36.28125 30.8125 30.421875 30.8125 
L 19.671875 30.8125 
L 19.671875 0 
L 9.8125 0 
L 9.8125 72.90625 
L 32.078125 72.90625 
Q 44.578125 72.90625 50.734375 67.671875 
Q 56.890625 62.453125 56.890625 51.90625 
Q 56.890625 45.015625 53.6875 40.46875 
Q 50.484375 35.9375 44.390625 34.1875 
z
M 19.671875 64.796875 
L 19.671875 38.921875 
L 32.078125 38.921875 
Q 39.203125 38.921875 42.84375 42.21875 
Q 46.484375 45.515625 46.484375 51.90625 
Q 46.484375 58.296875 42.84375 61.546875 
Q 39.203125 64.796875 32.078125 64.796875 
z
" id="DejaVuSans-82"/>
       <path id="DejaVuSans-32"/>
       <path d="M 9.421875 54.6875 
L 18.40625 54.6875 
L 18.40625 0 
L 9.421875 0 
z
M 9.421875 75.984375 
L 18.40625 75.984375 
L 18.40625 64.59375 
L 9.421875 64.59375 
z
" id="DejaVuSans-105"/>
       <path d="M 9.8125 72.90625 
L 24.515625 72.90625 
L 43.109375 23.296875 
L 61.8125 72.90625 
L 76.515625 72.90625 
L 76.515625 0 
L 66.890625 0 
L 66.890625 64.015625 
L 48.09375 14.015625 
L 38.1875 14.015625 
L 19.390625 64.015625 
L 19.390625 0 
L 9.8125 0 
z
" id="DejaVuSans-77"/>
       <path d="M 30.609375 48.390625 
Q 23.390625 48.390625 19.1875 42.75 
Q 14.984375 37.109375 14.984375 27.296875 
Q 14.984375 17.484375 19.15625 11.84375 
Q 23.34375 6.203125 30.609375 6.203125 
Q 37.796875 6.203125 41.984375 11.859375 
Q 46.1875 17.53125 46.1875 27.296875 
Q 46.1875 37.015625 41.984375 42.703125 
Q 37.796875 48.390625 30.609375 48.390625 
z
M 30.609375 56 
Q 42.328125 56 49.015625 48.375 
Q 55.71875 40.765625 55.71875 27.296875 
Q 55.71875 13.875 49.015625 6.21875 
Q 42.328125 -1.421875 30.609375 -1.421875 
Q 18.84375 -1.421875 12.171875 6.21875 
Q 5.515625 13.875 5.515625 27.296875 
Q 5.515625 40.765625 12.171875 48.375 
Q 18.84375 56 30.609375 56 
z
" id="DejaVuSans-111"/>
       <path d="M 45.40625 46.390625 
L 45.40625 75.984375 
L 54.390625 75.984375 
L 54.390625 0 
L 45.40625 0 
L 45.40625 8.203125 
Q 42.578125 3.328125 38.25 0.953125 
Q 33.9375 -1.421875 27.875 -1.421875 
Q 17.96875 -1.421875 11.734375 6.484375 
Q 5.515625 14.40625 5.515625 27.296875 
Q 5.515625 40.1875 11.734375 48.09375 
Q 17.96875 56 27.875 56 
Q 33.9375 56 38.25 53.625 
Q 42.578125 51.265625 45.40625 46.390625 
z
M 14.796875 27.296875 
Q 14.796875 17.390625 18.875 11.75 
Q 22.953125 6.109375 30.078125 6.109375 
Q 37.203125 6.109375 41.296875 11.75 
Q 45.40625 17.390625 45.40625 27.296875 
Q 45.40625 37.203125 41.296875 42.84375 
Q 37.203125 48.484375 30.078125 48.484375 
Q 22.953125 48.484375 18.875 42.84375 
Q 14.796875 37.203125 14.796875 27.296875 
z
" id="DejaVuSans-100"/>
       <path d="M 8.5 21.578125 
L 8.5 54.6875 
L 17.484375 54.6875 
L 17.484375 21.921875 
Q 17.484375 14.15625 20.5 10.265625 
Q 23.53125 6.390625 29.59375 6.390625 
Q 36.859375 6.390625 41.078125 11.03125 
Q 45.3125 15.671875 45.3125 23.6875 
L 45.3125 54.6875 
L 54.296875 54.6875 
L 54.296875 0 
L 45.3125 0 
L 45.3125 8.40625 
Q 42.046875 3.421875 37.71875 1 
Q 33.40625 -1.421875 27.6875 -1.421875 
Q 18.265625 -1.421875 13.375 4.4375 
Q 8.5 10.296875 8.5 21.578125 
z
M 31.109375 56 
z
" id="DejaVuSans-117"/>
       <path d="M 9.421875 75.984375 
L 18.40625 75.984375 
L 18.40625 0 
L 9.421875 0 
z
" id="DejaVuSans-108"/>
       <path d="M 54.890625 33.015625 
L 54.890625 0 
L 45.90625 0 
L 45.90625 32.71875 
Q 45.90625 40.484375 42.875 44.328125 
Q 39.84375 48.1875 33.796875 48.1875 
Q 26.515625 48.1875 22.3125 43.546875 
Q 18.109375 38.921875 18.109375 30.90625 
L 18.109375 0 
L 9.078125 0 
L 9.078125 54.6875 
L 18.109375 54.6875 
L 18.109375 46.1875 
Q 21.34375 51.125 25.703125 53.5625 
Q 30.078125 56 35.796875 56 
Q 45.21875 56 50.046875 50.171875 
Q 54.890625 44.34375 54.890625 33.015625 
z
" id="DejaVuSans-110"/>
      </defs>
      <use xlink:href="#DejaVuSans-72"/>
      <use x="75.195312" xlink:href="#DejaVuSans-101"/>
      <use x="134.96875" xlink:href="#DejaVuSans-120"/>
      <use x="194.148438" xlink:href="#DejaVuSans-82"/>
      <use x="263.630859" xlink:href="#DejaVuSans-32"/>
      <use x="295.417969" xlink:href="#DejaVuSans-105"/>
      <use x="323.201172" xlink:href="#DejaVuSans-77"/>
      <use x="409.480469" xlink:href="#DejaVuSans-111"/>
      <use x="470.662109" xlink:href="#DejaVuSans-100"/>
      <use x="534.138672" xlink:href="#DejaVuSans-117"/>
      <use x="597.517578" xlink:href="#DejaVuSans-108"/>
      <use x="625.300781" xlink:href="#DejaVuSans-111"/>
      <use x="686.482422" xlink:href="#DejaVuSans-110"/>
     </g>
     <!-- Activity -->
     <g transform="translate(-9.100313 94.079062)rotate(-90)scale(0.12 -0.12)">
      <defs>
       <path d="M 34.1875 63.1875 
L 20.796875 26.90625 
L 47.609375 26.90625 
z
M 28.609375 72.90625 
L 39.796875 72.90625 
L 67.578125 0 
L 57.328125 0 
L 50.6875 18.703125 
L 17.828125 18.703125 
L 11.1875 0 
L 0.78125 0 
z
" id="DejaVuSans-65"/>
       <path d="M 48.78125 52.59375 
L 48.78125 44.1875 
Q 44.96875 46.296875 41.140625 47.34375 
Q 37.3125 48.390625 33.40625 48.390625 
Q 24.65625 48.390625 19.8125 42.84375 
Q 14.984375 37.3125 14.984375 27.296875 
Q 14.984375 17.28125 19.8125 11.734375 
Q 24.65625 6.203125 33.40625 6.203125 
Q 37.3125 6.203125 41.140625 7.25 
Q 44.96875 8.296875 48.78125 10.40625 
L 48.78125 2.09375 
Q 45.015625 0.34375 40.984375 -0.53125 
Q 36.96875 -1.421875 32.421875 -1.421875 
Q 20.0625 -1.421875 12.78125 6.34375 
Q 5.515625 14.109375 5.515625 27.296875 
Q 5.515625 40.671875 12.859375 48.328125 
Q 20.21875 56 33.015625 56 
Q 37.15625 56 41.109375 55.140625 
Q 45.0625 54.296875 48.78125 52.59375 
z
" id="DejaVuSans-99"/>
       <path d="M 18.3125 70.21875 
L 18.3125 54.6875 
L 36.8125 54.6875 
L 36.8125 47.703125 
L 18.3125 47.703125 
L 18.3125 18.015625 
Q 18.3125 11.328125 20.140625 9.421875 
Q 21.96875 7.515625 27.59375 7.515625 
L 36.8125 7.515625 
L 36.8125 0 
L 27.59375 0 
Q 17.1875 0 13.234375 3.875 
Q 9.28125 7.765625 9.28125 18.015625 
L 9.28125 47.703125 
L 2.6875 47.703125 
L 2.6875 54.6875 
L 9.28125 54.6875 
L 9.28125 70.21875 
z
" id="DejaVuSans-116"/>
       <path d="M 2.984375 54.6875 
L 12.5 54.6875 
L 29.59375 8.796875 
L 46.6875 54.6875 
L 56.203125 54.6875 
L 35.6875 0 
L 23.484375 0 
z
" id="DejaVuSans-118"/>
       <path d="M 32.171875 -5.078125 
Q 28.375 -14.84375 24.75 -17.8125 
Q 21.140625 -20.796875 15.09375 -20.796875 
L 7.90625 -20.796875 
L 7.90625 -13.28125 
L 13.1875 -13.28125 
Q 16.890625 -13.28125 18.9375 -11.515625 
Q 21 -9.765625 23.484375 -3.21875 
L 25.09375 0.875 
L 2.984375 54.6875 
L 12.5 54.6875 
L 29.59375 11.921875 
L 46.6875 54.6875 
L 56.203125 54.6875 
z
" id="DejaVuSans-121"/>
      </defs>
      <use xlink:href="#DejaVuSans-65"/>
      <use x="66.658203" xlink:href="#DejaVuSans-99"/>
      <use x="121.638672" xlink:href="#DejaVuSans-116"/>
      <use x="160.847656" xlink:href="#DejaVuSans-105"/>
      <use x="188.630859" xlink:href="#DejaVuSans-118"/>
      <use x="247.810547" xlink:href="#DejaVuSans-105"/>
      <use x="275.59375" xlink:href="#DejaVuSans-116"/>
      <use x="314.802734" xlink:href="#DejaVuSans-121"/>
     </g>
    </g>
   </g>
   <g id="PathCollection_1">
    <defs>
     <path d="M 0 1.581139 
C 0.419323 1.581139 0.821528 1.41454 1.118034 1.118034 
C 1.41454 0.821528 1.581139 0.419323 1.581139 0 
C 1.581139 -0.419323 1.41454 -0.821528 1.118034 -1.118034 
C 0.821528 -1.41454 0.419323 -1.581139 0 -1.581139 
C -0.419323 -1.581139 -0.821528 -1.41454 -1.118034 -1.118034 
C -1.41454 -0.821528 -1.581139 -0.419323 -1.581139 0 
C -1.581139 0.419323 -1.41454 0.821528 -1.118034 1.118034 
C -0.821528 1.41454 -0.419323 1.581139 0 1.581139 
z
" id="m4d3af91162" style="stroke:#000000;"/>
    </defs>
    <g clip-path="url(#p77b816c77e)">
     <use style="stroke:#000000;" x="46.58" xlink:href="#m4d3af91162" y="74.813889"/>
     <use style="stroke:#000000;" x="46.58" xlink:href="#m4d3af91162" y="74.469706"/>
     <use style="stroke:#000000;" x="46.58" xlink:href="#m4d3af91162" y="72.18381"/>
     <use style="stroke:#000000;" x="57.12" xlink:href="#m4d3af91162" y="71.128744"/>
     <use style="stroke:#000000;" x="57.12" xlink:href="#m4d3af91162" y="75.363931"/>
     <use style="stroke:#000000;" x="57.12" xlink:href="#m4d3af91162" y="73.091026"/>
     <use style="stroke:#000000;" x="67.66" xlink:href="#m4d3af91162" y="79.68975"/>
     <use style="stroke:#000000;" x="67.66" xlink:href="#m4d3af91162" y="82.426666"/>
     <use style="stroke:#000000;" x="67.66" xlink:href="#m4d3af91162" y="84.428937"/>
     <use style="stroke:#000000;" x="78.2" xlink:href="#m4d3af91162" y="27.552791"/>
     <use style="stroke:#000000;" x="78.2" xlink:href="#m4d3af91162" y="31.069492"/>
     <use style="stroke:#000000;" x="78.2" xlink:href="#m4d3af91162" y="27.60306"/>
     <use style="stroke:#000000;" x="88.74" xlink:href="#m4d3af91162" y="82.828395"/>
     <use style="stroke:#000000;" x="88.74" xlink:href="#m4d3af91162" y="75.734995"/>
     <use style="stroke:#000000;" x="88.74" xlink:href="#m4d3af91162" y="91.842796"/>
     <use style="stroke:#000000;" x="99.28" xlink:href="#m4d3af91162" y="111.697826"/>
     <use style="stroke:#000000;" x="99.28" xlink:href="#m4d3af91162" y="112.174854"/>
     <use style="stroke:#000000;" x="99.28" xlink:href="#m4d3af91162" y="112.236746"/>
     <use style="stroke:#000000;" x="109.82" xlink:href="#m4d3af91162" y="31.143562"/>
     <use style="stroke:#000000;" x="109.82" xlink:href="#m4d3af91162" y="26.34"/>
     <use style="stroke:#000000;" x="120.36" xlink:href="#m4d3af91162" y="95.069714"/>
     <use style="stroke:#000000;" x="120.36" xlink:href="#m4d3af91162" y="94.658594"/>
     <use style="stroke:#000000;" x="120.36" xlink:href="#m4d3af91162" y="100.407584"/>
     <use style="stroke:#000000;" x="130.9" xlink:href="#m4d3af91162" y="58.426855"/>
     <use style="stroke:#000000;" x="130.9" xlink:href="#m4d3af91162" y="61.198802"/>
     <use style="stroke:#000000;" x="130.9" xlink:href="#m4d3af91162" y="57.554521"/>
     <use style="stroke:#000000;" x="141.44" xlink:href="#m4d3af91162" y="29.736439"/>
     <use style="stroke:#000000;" x="141.44" xlink:href="#m4d3af91162" y="26.498521"/>
     <use style="stroke:#000000;" x="141.44" xlink:href="#m4d3af91162" y="29.990383"/>
     <use style="stroke:#000000;" x="151.98" xlink:href="#m4d3af91162" y="27.184568"/>
     <use style="stroke:#000000;" x="151.98" xlink:href="#m4d3af91162" y="30.185488"/>
     <use style="stroke:#000000;" x="151.98" xlink:href="#m4d3af91162" y="28.855287"/>
     <use style="stroke:#000000;" x="162.52" xlink:href="#m4d3af91162" y="108.415988"/>
     <use style="stroke:#000000;" x="162.52" xlink:href="#m4d3af91162" y="109.912702"/>
     <use style="stroke:#000000;" x="162.52" xlink:href="#m4d3af91162" y="116.94"/>
    </g>
   </g>
   <g id="LineCollection_1">
    <path clip-path="url(#p77b816c77e)" d="M 41.31 126 
L 41.31 17.28 
" style="fill:none;stroke:#d3d3d3;"/>
    <path clip-path="url(#p77b816c77e)" d="M 83.47 126 
L 83.47 17.28 
" style="fill:none;stroke:#d3d3d3;"/>
    <path clip-path="url(#p77b816c77e)" d="M 125.63 126 
L 125.63 17.28 
" style="fill:none;stroke:#d3d3d3;"/>
    <path clip-path="url(#p77b816c77e)" d="M 146.71 126 
L 146.71 17.28 
" style="fill:none;stroke:#d3d3d3;"/>
    <path clip-path="url(#p77b816c77e)" d="M 167.79 126 
L 167.79 17.28 
" style="fill:none;stroke:#d3d3d3;"/>
   </g>
   <g id="LineCollection_2">
    <path clip-path="url(#p77b816c77e)" d="M 25.5 28.741781 
L 183.6 28.741781 
" style="fill:none;stroke:#000000;stroke-width:1.5;"/>
   </g>
   <g id="patch_15">
    <path d="M 25.5 126 
L 25.5 17.28 
" style="fill:none;stroke:#000000;stroke-linecap:square;stroke-linejoin:miter;stroke-width:0.8;"/>
   </g>
   <g id="patch_16">
    <path d="M 183.6 126 
L 183.6 17.28 
" style="fill:none;stroke:#000000;stroke-linecap:square;stroke-linejoin:miter;stroke-width:0.8;"/>
   </g>
   <g id="patch_17">
    <path d="M 25.5 126 
L 183.6 126 
" style="fill:none;stroke:#000000;stroke-linecap:square;stroke-linejoin:miter;stroke-width:0.8;"/>
   </g>
   <g id="patch_18">
    <path d="M 25.5 17.28 
L 183.6 17.28 
" style="fill:none;stroke:#000000;stroke-linecap:square;stroke-linejoin:miter;stroke-width:0.8;"/>
   </g>
   <g id="text_6">
    <!-- Aromatic -->
    <g transform="translate(39.70261 165.304135)rotate(-45)scale(0.1 -0.1)">
     <defs>
      <path d="M 41.109375 46.296875 
Q 39.59375 47.171875 37.8125 47.578125 
Q 36.03125 48 33.890625 48 
Q 26.265625 48 22.1875 43.046875 
Q 18.109375 38.09375 18.109375 28.8125 
L 18.109375 0 
L 9.078125 0 
L 9.078125 54.6875 
L 18.109375 54.6875 
L 18.109375 46.1875 
Q 20.953125 51.171875 25.484375 53.578125 
Q 30.03125 56 36.53125 56 
Q 37.453125 56 38.578125 55.875 
Q 39.703125 55.765625 41.0625 55.515625 
z
" id="DejaVuSans-114"/>
      <path d="M 52 44.1875 
Q 55.375 50.25 60.0625 53.125 
Q 64.75 56 71.09375 56 
Q 79.640625 56 84.28125 50.015625 
Q 88.921875 44.046875 88.921875 33.015625 
L 88.921875 0 
L 79.890625 0 
L 79.890625 32.71875 
Q 79.890625 40.578125 77.09375 44.375 
Q 74.3125 48.1875 68.609375 48.1875 
Q 61.625 48.1875 57.5625 43.546875 
Q 53.515625 38.921875 53.515625 30.90625 
L 53.515625 0 
L 44.484375 0 
L 44.484375 32.71875 
Q 44.484375 40.625 41.703125 44.40625 
Q 38.921875 48.1875 33.109375 48.1875 
Q 26.21875 48.1875 22.15625 43.53125 
Q 18.109375 38.875 18.109375 30.90625 
L 18.109375 0 
L 9.078125 0 
L 9.078125 54.6875 
L 18.109375 54.6875 
L 18.109375 46.1875 
Q 21.1875 51.21875 25.484375 53.609375 
Q 29.78125 56 35.6875 56 
Q 41.65625 56 45.828125 52.96875 
Q 50 49.953125 52 44.1875 
z
" id="DejaVuSans-109"/>
      <path d="M 34.28125 27.484375 
Q 23.390625 27.484375 19.1875 25 
Q 14.984375 22.515625 14.984375 16.5 
Q 14.984375 11.71875 18.140625 8.90625 
Q 21.296875 6.109375 26.703125 6.109375 
Q 34.1875 6.109375 38.703125 11.40625 
Q 43.21875 16.703125 43.21875 25.484375 
L 43.21875 27.484375 
z
M 52.203125 31.203125 
L 52.203125 0 
L 43.21875 0 
L 43.21875 8.296875 
Q 40.140625 3.328125 35.546875 0.953125 
Q 30.953125 -1.421875 24.3125 -1.421875 
Q 15.921875 -1.421875 10.953125 3.296875 
Q 6 8.015625 6 15.921875 
Q 6 25.140625 12.171875 29.828125 
Q 18.359375 34.515625 30.609375 34.515625 
L 43.21875 34.515625 
L 43.21875 35.40625 
Q 43.21875 41.609375 39.140625 45 
Q 35.0625 48.390625 27.6875 48.390625 
Q 23 48.390625 18.546875 47.265625 
Q 14.109375 46.140625 10.015625 43.890625 
L 10.015625 52.203125 
Q 14.9375 54.109375 19.578125 55.046875 
Q 24.21875 56 28.609375 56 
Q 40.484375 56 46.34375 49.84375 
Q 52.203125 43.703125 52.203125 31.203125 
z
" id="DejaVuSans-97"/>
     </defs>
     <use xlink:href="#DejaVuSans-65"/>
     <use x="68.408203" xlink:href="#DejaVuSans-114"/>
     <use x="107.271484" xlink:href="#DejaVuSans-111"/>
     <use x="168.453125" xlink:href="#DejaVuSans-109"/>
     <use x="265.865234" xlink:href="#DejaVuSans-97"/>
     <use x="327.144531" xlink:href="#DejaVuSans-116"/>
     <use x="366.353516" xlink:href="#DejaVuSans-105"/>
     <use x="394.136719" xlink:href="#DejaVuSans-99"/>
    </g>
   </g>
   <g id="text_7">
    <!-- Carbon -->
    <g transform="translate(88.144812 159.021933)rotate(-45)scale(0.1 -0.1)">
     <defs>
      <path d="M 64.40625 67.28125 
L 64.40625 56.890625 
Q 59.421875 61.53125 53.78125 63.8125 
Q 48.140625 66.109375 41.796875 66.109375 
Q 29.296875 66.109375 22.65625 58.46875 
Q 16.015625 50.828125 16.015625 36.375 
Q 16.015625 21.96875 22.65625 14.328125 
Q 29.296875 6.6875 41.796875 6.6875 
Q 48.140625 6.6875 53.78125 8.984375 
Q 59.421875 11.28125 64.40625 15.921875 
L 64.40625 5.609375 
Q 59.234375 2.09375 53.4375 0.328125 
Q 47.65625 -1.421875 41.21875 -1.421875 
Q 24.65625 -1.421875 15.125 8.703125 
Q 5.609375 18.84375 5.609375 36.375 
Q 5.609375 53.953125 15.125 64.078125 
Q 24.65625 74.21875 41.21875 74.21875 
Q 47.75 74.21875 53.53125 72.484375 
Q 59.328125 70.75 64.40625 67.28125 
z
" id="DejaVuSans-67"/>
      <path d="M 48.6875 27.296875 
Q 48.6875 37.203125 44.609375 42.84375 
Q 40.53125 48.484375 33.40625 48.484375 
Q 26.265625 48.484375 22.1875 42.84375 
Q 18.109375 37.203125 18.109375 27.296875 
Q 18.109375 17.390625 22.1875 11.75 
Q 26.265625 6.109375 33.40625 6.109375 
Q 40.53125 6.109375 44.609375 11.75 
Q 48.6875 17.390625 48.6875 27.296875 
z
M 18.109375 46.390625 
Q 20.953125 51.265625 25.265625 53.625 
Q 29.59375 56 35.59375 56 
Q 45.5625 56 51.78125 48.09375 
Q 58.015625 40.1875 58.015625 27.296875 
Q 58.015625 14.40625 51.78125 6.484375 
Q 45.5625 -1.421875 35.59375 -1.421875 
Q 29.59375 -1.421875 25.265625 0.953125 
Q 20.953125 3.328125 18.109375 8.203125 
L 18.109375 0 
L 9.078125 0 
L 9.078125 75.984375 
L 18.109375 75.984375 
z
" id="DejaVuSans-98"/>
     </defs>
     <use xlink:href="#DejaVuSans-67"/>
     <use x="69.824219" xlink:href="#DejaVuSans-97"/>
     <use x="131.103516" xlink:href="#DejaVuSans-114"/>
     <use x="172.216797" xlink:href="#DejaVuSans-98"/>
     <use x="235.693359" xlink:href="#DejaVuSans-111"/>
     <use x="296.875" xlink:href="#DejaVuSans-110"/>
    </g>
   </g>
   <g id="text_8">
    <!-- Carbon2 -->
    <g transform="translate(115.265845 163.5209)rotate(-45)scale(0.1 -0.1)">
     <defs>
      <path d="M 19.1875 8.296875 
L 53.609375 8.296875 
L 53.609375 0 
L 7.328125 0 
L 7.328125 8.296875 
Q 12.9375 14.109375 22.625 23.890625 
Q 32.328125 33.6875 34.8125 36.53125 
Q 39.546875 41.84375 41.421875 45.53125 
Q 43.3125 49.21875 43.3125 52.78125 
Q 43.3125 58.59375 39.234375 62.25 
Q 35.15625 65.921875 28.609375 65.921875 
Q 23.96875 65.921875 18.8125 64.3125 
Q 13.671875 62.703125 7.8125 59.421875 
L 7.8125 69.390625 
Q 13.765625 71.78125 18.9375 73 
Q 24.125 74.21875 28.421875 74.21875 
Q 39.75 74.21875 46.484375 68.546875 
Q 53.21875 62.890625 53.21875 53.421875 
Q 53.21875 48.921875 51.53125 44.890625 
Q 49.859375 40.875 45.40625 35.40625 
Q 44.1875 33.984375 37.640625 27.21875 
Q 31.109375 20.453125 19.1875 8.296875 
z
" id="DejaVuSans-50"/>
     </defs>
     <use xlink:href="#DejaVuSans-67"/>
     <use x="69.824219" xlink:href="#DejaVuSans-97"/>
     <use x="131.103516" xlink:href="#DejaVuSans-114"/>
     <use x="172.216797" xlink:href="#DejaVuSans-98"/>
     <use x="235.693359" xlink:href="#DejaVuSans-111"/>
     <use x="296.875" xlink:href="#DejaVuSans-110"/>
     <use x="360.253906" xlink:href="#DejaVuSans-50"/>
    </g>
   </g>
   <g id="text_9">
    <!-- Myristic_acid -->
    <g transform="translate(120.446991 179.22309)rotate(-45)scale(0.1 -0.1)">
     <defs>
      <path d="M 44.28125 53.078125 
L 44.28125 44.578125 
Q 40.484375 46.53125 36.375 47.5 
Q 32.28125 48.484375 27.875 48.484375 
Q 21.1875 48.484375 17.84375 46.4375 
Q 14.5 44.390625 14.5 40.28125 
Q 14.5 37.15625 16.890625 35.375 
Q 19.28125 33.59375 26.515625 31.984375 
L 29.59375 31.296875 
Q 39.15625 29.25 43.1875 25.515625 
Q 47.21875 21.78125 47.21875 15.09375 
Q 47.21875 7.46875 41.1875 3.015625 
Q 35.15625 -1.421875 24.609375 -1.421875 
Q 20.21875 -1.421875 15.453125 -0.5625 
Q 10.6875 0.296875 5.421875 2 
L 5.421875 11.28125 
Q 10.40625 8.6875 15.234375 7.390625 
Q 20.0625 6.109375 24.8125 6.109375 
Q 31.15625 6.109375 34.5625 8.28125 
Q 37.984375 10.453125 37.984375 14.40625 
Q 37.984375 18.0625 35.515625 20.015625 
Q 33.0625 21.96875 24.703125 23.78125 
L 21.578125 24.515625 
Q 13.234375 26.265625 9.515625 29.90625 
Q 5.8125 33.546875 5.8125 39.890625 
Q 5.8125 47.609375 11.28125 51.796875 
Q 16.75 56 26.8125 56 
Q 31.78125 56 36.171875 55.265625 
Q 40.578125 54.546875 44.28125 53.078125 
z
" id="DejaVuSans-115"/>
      <path d="M 50.984375 -16.609375 
L 50.984375 -23.578125 
L -0.984375 -23.578125 
L -0.984375 -16.609375 
z
" id="DejaVuSans-95"/>
     </defs>
     <use xlink:href="#DejaVuSans-77"/>
     <use x="86.279297" xlink:href="#DejaVuSans-121"/>
     <use x="145.458984" xlink:href="#DejaVuSans-114"/>
     <use x="186.572266" xlink:href="#DejaVuSans-105"/>
     <use x="214.355469" xlink:href="#DejaVuSans-115"/>
     <use x="266.455078" xlink:href="#DejaVuSans-116"/>
     <use x="305.664062" xlink:href="#DejaVuSans-105"/>
     <use x="333.447266" xlink:href="#DejaVuSans-99"/>
     <use x="388.427734" xlink:href="#DejaVuSans-95"/>
     <use x="438.427734" xlink:href="#DejaVuSans-97"/>
     <use x="499.707031" xlink:href="#DejaVuSans-99"/>
     <use x="554.6875" xlink:href="#DejaVuSans-105"/>
     <use x="582.470703" xlink:href="#DejaVuSans-100"/>
    </g>
   </g>
   <g id="legend_1">
    <g id="patch_19">
     <path d="M 190.6 84.54875 
L 702.504688 84.54875 
Q 704.504688 84.54875 704.504688 82.54875 
L 704.504688 24.28 
Q 704.504688 22.28 702.504688 22.28 
L 190.6 22.28 
Q 188.6 22.28 188.6 24.28 
L 188.6 82.54875 
Q 188.6 84.54875 190.6 84.54875 
z
" style="fill:#ffffff;opacity:0.8;stroke:#cccccc;stroke-linejoin:miter;"/>
    </g>
    <g id="patch_20">
     <path d="M 192.6 33.878438 
L 212.6 33.878438 
L 212.6 26.878438 
L 192.6 26.878438 
z
" style="fill:#d62728;"/>
    </g>
    <g id="text_10">
     <!-- Aromatic - Coumarate -->
     <g transform="translate(220.6 33.878438)scale(0.1 -0.1)">
      <defs>
       <path d="M 4.890625 31.390625 
L 31.203125 31.390625 
L 31.203125 23.390625 
L 4.890625 23.390625 
z
" id="DejaVuSans-45"/>
      </defs>
      <use xlink:href="#DejaVuSans-65"/>
      <use x="68.408203" xlink:href="#DejaVuSans-114"/>
      <use x="107.271484" xlink:href="#DejaVuSans-111"/>
      <use x="168.453125" xlink:href="#DejaVuSans-109"/>
      <use x="265.865234" xlink:href="#DejaVuSans-97"/>
      <use x="327.144531" xlink:href="#DejaVuSans-116"/>
      <use x="366.353516" xlink:href="#DejaVuSans-105"/>
      <use x="394.136719" xlink:href="#DejaVuSans-99"/>
      <use x="449.117188" xlink:href="#DejaVuSans-32"/>
      <use x="480.904297" xlink:href="#DejaVuSans-45"/>
      <use x="516.988281" xlink:href="#DejaVuSans-32"/>
      <use x="548.775391" xlink:href="#DejaVuSans-67"/>
      <use x="618.599609" xlink:href="#DejaVuSans-111"/>
      <use x="679.78125" xlink:href="#DejaVuSans-117"/>
      <use x="743.160156" xlink:href="#DejaVuSans-109"/>
      <use x="840.572266" xlink:href="#DejaVuSans-97"/>
      <use x="901.851562" xlink:href="#DejaVuSans-114"/>
      <use x="942.964844" xlink:href="#DejaVuSans-97"/>
      <use x="1004.244141" xlink:href="#DejaVuSans-116"/>
      <use x="1043.453125" xlink:href="#DejaVuSans-101"/>
     </g>
    </g>
    <g id="patch_21">
     <path d="M 192.6 48.556563 
L 212.6 48.556563 
L 212.6 41.556563 
L 192.6 41.556563 
z
" style="fill:#ff7f0e;"/>
    </g>
    <g id="text_11">
     <!-- Aromatic - Coumarate+ferulate -->
     <g transform="translate(220.6 48.556563)scale(0.1 -0.1)">
      <defs>
       <path d="M 46 62.703125 
L 46 35.5 
L 73.1875 35.5 
L 73.1875 27.203125 
L 46 27.203125 
L 46 0 
L 37.796875 0 
L 37.796875 27.203125 
L 10.59375 27.203125 
L 10.59375 35.5 
L 37.796875 35.5 
L 37.796875 62.703125 
z
" id="DejaVuSans-43"/>
       <path d="M 37.109375 75.984375 
L 37.109375 68.5 
L 28.515625 68.5 
Q 23.6875 68.5 21.796875 66.546875 
Q 19.921875 64.59375 19.921875 59.515625 
L 19.921875 54.6875 
L 34.71875 54.6875 
L 34.71875 47.703125 
L 19.921875 47.703125 
L 19.921875 0 
L 10.890625 0 
L 10.890625 47.703125 
L 2.296875 47.703125 
L 2.296875 54.6875 
L 10.890625 54.6875 
L 10.890625 58.5 
Q 10.890625 67.625 15.140625 71.796875 
Q 19.390625 75.984375 28.609375 75.984375 
z
" id="DejaVuSans-102"/>
      </defs>
      <use xlink:href="#DejaVuSans-65"/>
      <use x="68.408203" xlink:href="#DejaVuSans-114"/>
      <use x="107.271484" xlink:href="#DejaVuSans-111"/>
      <use x="168.453125" xlink:href="#DejaVuSans-109"/>
      <use x="265.865234" xlink:href="#DejaVuSans-97"/>
      <use x="327.144531" xlink:href="#DejaVuSans-116"/>
      <use x="366.353516" xlink:href="#DejaVuSans-105"/>
      <use x="394.136719" xlink:href="#DejaVuSans-99"/>
      <use x="449.117188" xlink:href="#DejaVuSans-32"/>
      <use x="480.904297" xlink:href="#DejaVuSans-45"/>
      <use x="516.988281" xlink:href="#DejaVuSans-32"/>
      <use x="548.775391" xlink:href="#DejaVuSans-67"/>
      <use x="618.599609" xlink:href="#DejaVuSans-111"/>
      <use x="679.78125" xlink:href="#DejaVuSans-117"/>
      <use x="743.160156" xlink:href="#DejaVuSans-109"/>
      <use x="840.572266" xlink:href="#DejaVuSans-97"/>
      <use x="901.851562" xlink:href="#DejaVuSans-114"/>
      <use x="942.964844" xlink:href="#DejaVuSans-97"/>
      <use x="1004.244141" xlink:href="#DejaVuSans-116"/>
      <use x="1043.453125" xlink:href="#DejaVuSans-101"/>
      <use x="1104.976562" xlink:href="#DejaVuSans-43"/>
      <use x="1188.765625" xlink:href="#DejaVuSans-102"/>
      <use x="1223.970703" xlink:href="#DejaVuSans-101"/>
      <use x="1285.494141" xlink:href="#DejaVuSans-114"/>
      <use x="1326.607422" xlink:href="#DejaVuSans-117"/>
      <use x="1389.986328" xlink:href="#DejaVuSans-108"/>
      <use x="1417.769531" xlink:href="#DejaVuSans-97"/>
      <use x="1479.048828" xlink:href="#DejaVuSans-116"/>
      <use x="1518.257812" xlink:href="#DejaVuSans-101"/>
     </g>
    </g>
    <g id="patch_22">
     <path d="M 192.6 63.234688 
L 212.6 63.234688 
L 212.6 56.234688 
L 192.6 56.234688 
z
" style="fill:#2ca02c;"/>
    </g>
    <g id="text_12">
     <!-- Aromatic - Ferulate -->
     <g transform="translate(220.6 63.234688)scale(0.1 -0.1)">
      <defs>
       <path d="M 9.8125 72.90625 
L 51.703125 72.90625 
L 51.703125 64.59375 
L 19.671875 64.59375 
L 19.671875 43.109375 
L 48.578125 43.109375 
L 48.578125 34.8125 
L 19.671875 34.8125 
L 19.671875 0 
L 9.8125 0 
z
" id="DejaVuSans-70"/>
      </defs>
      <use xlink:href="#DejaVuSans-65"/>
      <use x="68.408203" xlink:href="#DejaVuSans-114"/>
      <use x="107.271484" xlink:href="#DejaVuSans-111"/>
      <use x="168.453125" xlink:href="#DejaVuSans-109"/>
      <use x="265.865234" xlink:href="#DejaVuSans-97"/>
      <use x="327.144531" xlink:href="#DejaVuSans-116"/>
      <use x="366.353516" xlink:href="#DejaVuSans-105"/>
      <use x="394.136719" xlink:href="#DejaVuSans-99"/>
      <use x="449.117188" xlink:href="#DejaVuSans-32"/>
      <use x="480.904297" xlink:href="#DejaVuSans-45"/>
      <use x="516.988281" xlink:href="#DejaVuSans-32"/>
      <use x="548.775391" xlink:href="#DejaVuSans-70"/>
      <use x="600.794922" xlink:href="#DejaVuSans-101"/>
      <use x="662.318359" xlink:href="#DejaVuSans-114"/>
      <use x="703.431641" xlink:href="#DejaVuSans-117"/>
      <use x="766.810547" xlink:href="#DejaVuSans-108"/>
      <use x="794.59375" xlink:href="#DejaVuSans-97"/>
      <use x="855.873047" xlink:href="#DejaVuSans-116"/>
      <use x="895.082031" xlink:href="#DejaVuSans-101"/>
     </g>
    </g>
    <g id="patch_23">
     <path d="M 192.6 77.912813 
L 212.6 77.912813 
L 212.6 70.912813 
L 192.6 70.912813 
z
" style="fill:#9467bd;"/>
    </g>
    <g id="text_13">
     <!-- Aromatic - Glucose -->
     <g transform="translate(220.6 77.912813)scale(0.1 -0.1)">
      <defs>
       <path d="M 59.515625 10.40625 
L 59.515625 29.984375 
L 43.40625 29.984375 
L 43.40625 38.09375 
L 69.28125 38.09375 
L 69.28125 6.78125 
Q 63.578125 2.734375 56.6875 0.65625 
Q 49.8125 -1.421875 42 -1.421875 
Q 24.90625 -1.421875 15.25 8.5625 
Q 5.609375 18.5625 5.609375 36.375 
Q 5.609375 54.25 15.25 64.234375 
Q 24.90625 74.21875 42 74.21875 
Q 49.125 74.21875 55.546875 72.453125 
Q 61.96875 70.703125 67.390625 67.28125 
L 67.390625 56.78125 
Q 61.921875 61.421875 55.765625 63.765625 
Q 49.609375 66.109375 42.828125 66.109375 
Q 29.4375 66.109375 22.71875 58.640625 
Q 16.015625 51.171875 16.015625 36.375 
Q 16.015625 21.625 22.71875 14.15625 
Q 29.4375 6.6875 42.828125 6.6875 
Q 48.046875 6.6875 52.140625 7.59375 
Q 56.25 8.5 59.515625 10.40625 
z
" id="DejaVuSans-71"/>
      </defs>
      <use xlink:href="#DejaVuSans-65"/>
      <use x="68.408203" xlink:href="#DejaVuSans-114"/>
      <use x="107.271484" xlink:href="#DejaVuSans-111"/>
      <use x="168.453125" xlink:href="#DejaVuSans-109"/>
      <use x="265.865234" xlink:href="#DejaVuSans-97"/>
      <use x="327.144531" xlink:href="#DejaVuSans-116"/>
      <use x="366.353516" xlink:href="#DejaVuSans-105"/>
      <use x="394.136719" xlink:href="#DejaVuSans-99"/>
      <use x="449.117188" xlink:href="#DejaVuSans-32"/>
      <use x="480.904297" xlink:href="#DejaVuSans-45"/>
      <use x="516.988281" xlink:href="#DejaVuSans-32"/>
      <use x="548.775391" xlink:href="#DejaVuSans-71"/>
      <use x="626.265625" xlink:href="#DejaVuSans-108"/>
      <use x="654.048828" xlink:href="#DejaVuSans-117"/>
      <use x="717.427734" xlink:href="#DejaVuSans-99"/>
      <use x="772.408203" xlink:href="#DejaVuSans-111"/>
      <use x="833.589844" xlink:href="#DejaVuSans-115"/>
      <use x="885.689453" xlink:href="#DejaVuSans-101"/>
     </g>
    </g>
    <g id="patch_24">
     <path d="M 398.576563 33.878438 
L 418.576563 33.878438 
L 418.576563 26.878438 
L 398.576563 26.878438 
z
" style="fill:#8c564b;"/>
    </g>
    <g id="text_14">
     <!-- Carbon - Citrate -->
     <g transform="translate(426.576563 33.878438)scale(0.1 -0.1)">
      <use xlink:href="#DejaVuSans-67"/>
      <use x="69.824219" xlink:href="#DejaVuSans-97"/>
      <use x="131.103516" xlink:href="#DejaVuSans-114"/>
      <use x="172.216797" xlink:href="#DejaVuSans-98"/>
      <use x="235.693359" xlink:href="#DejaVuSans-111"/>
      <use x="296.875" xlink:href="#DejaVuSans-110"/>
      <use x="360.253906" xlink:href="#DejaVuSans-32"/>
      <use x="392.041016" xlink:href="#DejaVuSans-45"/>
      <use x="428.125" xlink:href="#DejaVuSans-32"/>
      <use x="459.912109" xlink:href="#DejaVuSans-67"/>
      <use x="529.736328" xlink:href="#DejaVuSans-105"/>
      <use x="557.519531" xlink:href="#DejaVuSans-116"/>
      <use x="596.728516" xlink:href="#DejaVuSans-114"/>
      <use x="637.841797" xlink:href="#DejaVuSans-97"/>
      <use x="699.121094" xlink:href="#DejaVuSans-116"/>
      <use x="738.330078" xlink:href="#DejaVuSans-101"/>
     </g>
    </g>
    <g id="patch_25">
     <path d="M 398.576563 48.556563 
L 418.576563 48.556563 
L 418.576563 41.556563 
L 398.576563 41.556563 
z
" style="fill:#e377c2;"/>
    </g>
    <g id="text_15">
     <!-- Carbon - Ferulate -->
     <g transform="translate(426.576563 48.556563)scale(0.1 -0.1)">
      <use xlink:href="#DejaVuSans-67"/>
      <use x="69.824219" xlink:href="#DejaVuSans-97"/>
      <use x="131.103516" xlink:href="#DejaVuSans-114"/>
      <use x="172.216797" xlink:href="#DejaVuSans-98"/>
      <use x="235.693359" xlink:href="#DejaVuSans-111"/>
      <use x="296.875" xlink:href="#DejaVuSans-110"/>
      <use x="360.253906" xlink:href="#DejaVuSans-32"/>
      <use x="392.041016" xlink:href="#DejaVuSans-45"/>
      <use x="428.125" xlink:href="#DejaVuSans-32"/>
      <use x="459.912109" xlink:href="#DejaVuSans-70"/>
      <use x="511.931641" xlink:href="#DejaVuSans-101"/>
      <use x="573.455078" xlink:href="#DejaVuSans-114"/>
      <use x="614.568359" xlink:href="#DejaVuSans-117"/>
      <use x="677.947266" xlink:href="#DejaVuSans-108"/>
      <use x="705.730469" xlink:href="#DejaVuSans-97"/>
      <use x="767.009766" xlink:href="#DejaVuSans-116"/>
      <use x="806.21875" xlink:href="#DejaVuSans-101"/>
     </g>
    </g>
    <g id="patch_26">
     <path d="M 398.576563 63.234688 
L 418.576563 63.234688 
L 418.576563 56.234688 
L 398.576563 56.234688 
z
" style="fill:#7f7f7f;"/>
    </g>
    <g id="text_16">
     <!-- Carbon - Glucose -->
     <g transform="translate(426.576563 63.234688)scale(0.1 -0.1)">
      <use xlink:href="#DejaVuSans-67"/>
      <use x="69.824219" xlink:href="#DejaVuSans-97"/>
      <use x="131.103516" xlink:href="#DejaVuSans-114"/>
      <use x="172.216797" xlink:href="#DejaVuSans-98"/>
      <use x="235.693359" xlink:href="#DejaVuSans-111"/>
      <use x="296.875" xlink:href="#DejaVuSans-110"/>
      <use x="360.253906" xlink:href="#DejaVuSans-32"/>
      <use x="392.041016" xlink:href="#DejaVuSans-45"/>
      <use x="428.125" xlink:href="#DejaVuSans-32"/>
      <use x="459.912109" xlink:href="#DejaVuSans-71"/>
      <use x="537.402344" xlink:href="#DejaVuSans-108"/>
      <use x="565.185547" xlink:href="#DejaVuSans-117"/>
      <use x="628.564453" xlink:href="#DejaVuSans-99"/>
      <use x="683.544922" xlink:href="#DejaVuSans-111"/>
      <use x="744.726562" xlink:href="#DejaVuSans-115"/>
      <use x="796.826172" xlink:href="#DejaVuSans-101"/>
     </g>
    </g>
    <g id="patch_27">
     <path d="M 398.576563 77.912813 
L 418.576563 77.912813 
L 418.576563 70.912813 
L 398.576563 70.912813 
z
" style="fill:#bcbd22;"/>
    </g>
    <g id="text_17">
     <!-- Carbon - Serine -->
     <g transform="translate(426.576563 77.912813)scale(0.1 -0.1)">
      <defs>
       <path d="M 53.515625 70.515625 
L 53.515625 60.890625 
Q 47.90625 63.578125 42.921875 64.890625 
Q 37.9375 66.21875 33.296875 66.21875 
Q 25.25 66.21875 20.875 63.09375 
Q 16.5 59.96875 16.5 54.203125 
Q 16.5 49.359375 19.40625 46.890625 
Q 22.3125 44.4375 30.421875 42.921875 
L 36.375 41.703125 
Q 47.40625 39.59375 52.65625 34.296875 
Q 57.90625 29 57.90625 20.125 
Q 57.90625 9.515625 50.796875 4.046875 
Q 43.703125 -1.421875 29.984375 -1.421875 
Q 24.8125 -1.421875 18.96875 -0.25 
Q 13.140625 0.921875 6.890625 3.21875 
L 6.890625 13.375 
Q 12.890625 10.015625 18.65625 8.296875 
Q 24.421875 6.59375 29.984375 6.59375 
Q 38.421875 6.59375 43.015625 9.90625 
Q 47.609375 13.234375 47.609375 19.390625 
Q 47.609375 24.75 44.3125 27.78125 
Q 41.015625 30.8125 33.5 32.328125 
L 27.484375 33.5 
Q 16.453125 35.6875 11.515625 40.375 
Q 6.59375 45.0625 6.59375 53.421875 
Q 6.59375 63.09375 13.40625 68.65625 
Q 20.21875 74.21875 32.171875 74.21875 
Q 37.3125 74.21875 42.625 73.28125 
Q 47.953125 72.359375 53.515625 70.515625 
z
" id="DejaVuSans-83"/>
      </defs>
      <use xlink:href="#DejaVuSans-67"/>
      <use x="69.824219" xlink:href="#DejaVuSans-97"/>
      <use x="131.103516" xlink:href="#DejaVuSans-114"/>
      <use x="172.216797" xlink:href="#DejaVuSans-98"/>
      <use x="235.693359" xlink:href="#DejaVuSans-111"/>
      <use x="296.875" xlink:href="#DejaVuSans-110"/>
      <use x="360.253906" xlink:href="#DejaVuSans-32"/>
      <use x="392.041016" xlink:href="#DejaVuSans-45"/>
      <use x="428.125" xlink:href="#DejaVuSans-32"/>
      <use x="459.912109" xlink:href="#DejaVuSans-83"/>
      <use x="523.388672" xlink:href="#DejaVuSans-101"/>
      <use x="584.912109" xlink:href="#DejaVuSans-114"/>
      <use x="626.025391" xlink:href="#DejaVuSans-105"/>
      <use x="653.808594" xlink:href="#DejaVuSans-110"/>
      <use x="717.1875" xlink:href="#DejaVuSans-101"/>
     </g>
    </g>
    <g id="patch_28">
     <path d="M 533.35 33.878438 
L 553.35 33.878438 
L 553.35 26.878438 
L 533.35 26.878438 
z
" style="fill:#17becf;"/>
    </g>
    <g id="text_18">
     <!-- Carbon2 - Coumarate -->
     <g transform="translate(561.35 33.878438)scale(0.1 -0.1)">
      <use xlink:href="#DejaVuSans-67"/>
      <use x="69.824219" xlink:href="#DejaVuSans-97"/>
      <use x="131.103516" xlink:href="#DejaVuSans-114"/>
      <use x="172.216797" xlink:href="#DejaVuSans-98"/>
      <use x="235.693359" xlink:href="#DejaVuSans-111"/>
      <use x="296.875" xlink:href="#DejaVuSans-110"/>
      <use x="360.253906" xlink:href="#DejaVuSans-50"/>
      <use x="423.876953" xlink:href="#DejaVuSans-32"/>
      <use x="455.664062" xlink:href="#DejaVuSans-45"/>
      <use x="491.748047" xlink:href="#DejaVuSans-32"/>
      <use x="523.535156" xlink:href="#DejaVuSans-67"/>
      <use x="593.359375" xlink:href="#DejaVuSans-111"/>
      <use x="654.541016" xlink:href="#DejaVuSans-117"/>
      <use x="717.919922" xlink:href="#DejaVuSans-109"/>
      <use x="815.332031" xlink:href="#DejaVuSans-97"/>
      <use x="876.611328" xlink:href="#DejaVuSans-114"/>
      <use x="917.724609" xlink:href="#DejaVuSans-97"/>
      <use x="979.003906" xlink:href="#DejaVuSans-116"/>
      <use x="1018.212891" xlink:href="#DejaVuSans-101"/>
     </g>
    </g>
    <g id="patch_29">
     <path d="M 533.35 48.556563 
L 553.35 48.556563 
L 553.35 41.556563 
L 533.35 41.556563 
z
" style="fill:#d62728;"/>
    </g>
    <g id="text_19">
     <!-- Carbon2 - Glucose -->
     <g transform="translate(561.35 48.556563)scale(0.1 -0.1)">
      <use xlink:href="#DejaVuSans-67"/>
      <use x="69.824219" xlink:href="#DejaVuSans-97"/>
      <use x="131.103516" xlink:href="#DejaVuSans-114"/>
      <use x="172.216797" xlink:href="#DejaVuSans-98"/>
      <use x="235.693359" xlink:href="#DejaVuSans-111"/>
      <use x="296.875" xlink:href="#DejaVuSans-110"/>
      <use x="360.253906" xlink:href="#DejaVuSans-50"/>
      <use x="423.876953" xlink:href="#DejaVuSans-32"/>
      <use x="455.664062" xlink:href="#DejaVuSans-45"/>
      <use x="491.748047" xlink:href="#DejaVuSans-32"/>
      <use x="523.535156" xlink:href="#DejaVuSans-71"/>
      <use x="601.025391" xlink:href="#DejaVuSans-108"/>
      <use x="628.808594" xlink:href="#DejaVuSans-117"/>
      <use x="692.1875" xlink:href="#DejaVuSans-99"/>
      <use x="747.167969" xlink:href="#DejaVuSans-111"/>
      <use x="808.349609" xlink:href="#DejaVuSans-115"/>
      <use x="860.449219" xlink:href="#DejaVuSans-101"/>
     </g>
    </g>
    <g id="patch_30">
     <path d="M 533.35 63.234688 
L 553.35 63.234688 
L 553.35 56.234688 
L 533.35 56.234688 
z
" style="fill:#ff7f0e;"/>
    </g>
    <g id="text_20">
     <!-- Myristic_acid - Control -->
     <g transform="translate(561.35 63.234688)scale(0.1 -0.1)">
      <use xlink:href="#DejaVuSans-77"/>
      <use x="86.279297" xlink:href="#DejaVuSans-121"/>
      <use x="145.458984" xlink:href="#DejaVuSans-114"/>
      <use x="186.572266" xlink:href="#DejaVuSans-105"/>
      <use x="214.355469" xlink:href="#DejaVuSans-115"/>
      <use x="266.455078" xlink:href="#DejaVuSans-116"/>
      <use x="305.664062" xlink:href="#DejaVuSans-105"/>
      <use x="333.447266" xlink:href="#DejaVuSans-99"/>
      <use x="388.427734" xlink:href="#DejaVuSans-95"/>
      <use x="438.427734" xlink:href="#DejaVuSans-97"/>
      <use x="499.707031" xlink:href="#DejaVuSans-99"/>
      <use x="554.6875" xlink:href="#DejaVuSans-105"/>
      <use x="582.470703" xlink:href="#DejaVuSans-100"/>
      <use x="645.947266" xlink:href="#DejaVuSans-32"/>
      <use x="677.734375" xlink:href="#DejaVuSans-45"/>
      <use x="713.818359" xlink:href="#DejaVuSans-32"/>
      <use x="745.605469" xlink:href="#DejaVuSans-67"/>
      <use x="815.429688" xlink:href="#DejaVuSans-111"/>
      <use x="876.611328" xlink:href="#DejaVuSans-110"/>
      <use x="939.990234" xlink:href="#DejaVuSans-116"/>
      <use x="979.199219" xlink:href="#DejaVuSans-114"/>
      <use x="1018.0625" xlink:href="#DejaVuSans-111"/>
      <use x="1079.244141" xlink:href="#DejaVuSans-108"/>
     </g>
    </g>
    <g id="patch_31">
     <path d="M 533.35 78.190938 
L 553.35 78.190938 
L 553.35 71.190938 
L 533.35 71.190938 
z
" style="fill:#2ca02c;"/>
    </g>
    <g id="text_21">
     <!-- Myristic_acid - Myristic_acid -->
     <g transform="translate(561.35 78.190938)scale(0.1 -0.1)">
      <use xlink:href="#DejaVuSans-77"/>
      <use x="86.279297" xlink:href="#DejaVuSans-121"/>
      <use x="145.458984" xlink:href="#DejaVuSans-114"/>
      <use x="186.572266" xlink:href="#DejaVuSans-105"/>
      <use x="214.355469" xlink:href="#DejaVuSans-115"/>
      <use x="266.455078" xlink:href="#DejaVuSans-116"/>
      <use x="305.664062" xlink:href="#DejaVuSans-105"/>
      <use x="333.447266" xlink:href="#DejaVuSans-99"/>
      <use x="388.427734" xlink:href="#DejaVuSans-95"/>
      <use x="438.427734" xlink:href="#DejaVuSans-97"/>
      <use x="499.707031" xlink:href="#DejaVuSans-99"/>
      <use x="554.6875" xlink:href="#DejaVuSans-105"/>
      <use x="582.470703" xlink:href="#DejaVuSans-100"/>
      <use x="645.947266" xlink:href="#DejaVuSans-32"/>
      <use x="677.734375" xlink:href="#DejaVuSans-45"/>
      <use x="713.818359" xlink:href="#DejaVuSans-32"/>
      <use x="745.605469" xlink:href="#DejaVuSans-77"/>
      <use x="831.884766" xlink:href="#DejaVuSans-121"/>
      <use x="891.064453" xlink:href="#DejaVuSans-114"/>
      <use x="932.177734" xlink:href="#DejaVuSans-105"/>
      <use x="959.960938" xlink:href="#DejaVuSans-115"/>
      <use x="1012.060547" xlink:href="#DejaVuSans-116"/>
      <use x="1051.269531" xlink:href="#DejaVuSans-105"/>
      <use x="1079.052734" xlink:href="#DejaVuSans-99"/>
      <use x="1134.033203" xlink:href="#DejaVuSans-95"/>
      <use x="1184.033203" xlink:href="#DejaVuSans-97"/>
      <use x="1245.3125" xlink:href="#DejaVuSans-99"/>
      <use x="1300.292969" xlink:href="#DejaVuSans-105"/>
      <use x="1328.076172" xlink:href="#DejaVuSans-100"/>
     </g>
    </g>
   </g>
  </g>
 </g>
 <defs>
  <clipPath id="p77b816c77e">
   <rect height="108.72" width="158.1" x="25.5" y="17.28"/>
  </clipPath>
 </defs>
</svg>
