<?xml version="1.0" encoding="utf-8" standalone="no"?>
<!DOCTYPE svg PUBLIC "-//W3C//DTD SVG 1.1//EN"
  "http://www.w3.org/Graphics/SVG/1.1/DTD/svg11.dtd">
<!-- Created with matplotlib (https://matplotlib.org/) -->
<svg height="144pt" version="1.1" viewBox="0 0 199.2 144" width="199.2pt" xmlns="http://www.w3.org/2000/svg" xmlns:xlink="http://www.w3.org/1999/xlink">
 <metadata>
  <rdf:RDF xmlns:cc="http://creativecommons.org/ns#" xmlns:dc="http://purl.org/dc/elements/1.1/" xmlns:rdf="http://www.w3.org/1999/02/22-rdf-syntax-ns#">
   <cc:Work>
    <dc:type rdf:resource="http://purl.org/dc/dcmitype/StillImage"/>
    <dc:date>2022-01-10T10:28:20.369226</dc:date>
    <dc:format>image/svg+xml</dc:format>
    <dc:creator>
     <cc:Agent>
      <dc:title>Matplotlib v3.3.4, https://matplotlib.org/</dc:title>
     </cc:Agent>
    </dc:creator>
   </cc:Work>
  </rdf:RDF>
 </metadata>
 <defs>
  <style type="text/css">*{stroke-linecap:butt;stroke-linejoin:round;}</style>
 </defs>
 <g id="figure_1">
  <g id="patch_1">
   <path d="M 0 144 
L 199.2 144 
L 199.2 0 
L 0 0 
z
" style="fill:none;"/>
  </g>
  <g id="axes_1">
   <g id="patch_2">
    <path d="M 24.9 126 
L 179.28 126 
L 179.28 17.28 
L 24.9 17.28 
z
" style="fill:#ffffff;"/>
   </g>
   <g id="patch_3">
    <path clip-path="url(#pbf0771def4)" d="M 37.087895 111.13672 
L 45.213158 111.13672 
L 45.213158 60.402221 
L 37.087895 60.402221 
z
" style="fill:#d62728;"/>
   </g>
   <g id="patch_4">
    <path clip-path="url(#pbf0771def4)" d="M 45.213158 111.13672 
L 53.338421 111.13672 
L 53.338421 64.553103 
L 45.213158 64.553103 
z
" style="fill:#ff7f0e;"/>
   </g>
   <g id="patch_5">
    <path clip-path="url(#pbf0771def4)" d="M 53.338421 111.13672 
L 61.463684 111.13672 
L 61.463684 72.220886 
L 53.338421 72.220886 
z
" style="fill:#2ca02c;"/>
   </g>
   <g id="patch_6">
    <path clip-path="url(#pbf0771def4)" d="M 61.463684 111.13672 
L 69.588947 111.13672 
L 69.588947 111.13672 
L 61.463684 111.13672 
z
" style="fill:#9467bd;"/>
   </g>
   <g id="patch_7">
    <path clip-path="url(#pbf0771def4)" d="M 69.588947 111.13672 
L 77.714211 111.13672 
L 77.714211 36.908549 
L 69.588947 36.908549 
z
" style="fill:#8c564b;"/>
   </g>
   <g id="patch_8">
    <path clip-path="url(#pbf0771def4)" d="M 77.714211 111.13672 
L 85.839474 111.13672 
L 85.839474 51.356202 
L 77.714211 51.356202 
z
" style="fill:#e377c2;"/>
   </g>
   <g id="patch_9">
    <path clip-path="url(#pbf0771def4)" d="M 85.839474 111.13672 
L 93.964737 111.13672 
L 93.964737 42.50036 
L 85.839474 42.50036 
z
" style="fill:#7f7f7f;"/>
   </g>
   <g id="patch_10">
    <path clip-path="url(#pbf0771def4)" d="M 93.964737 111.13672 
L 102.09 111.13672 
L 102.09 97.986475 
L 93.964737 97.986475 
z
" style="fill:#bcbd22;"/>
   </g>
   <g id="patch_11">
    <path clip-path="url(#pbf0771def4)" d="M 102.09 111.13672 
L 110.215263 111.13672 
L 110.215263 109.899248 
L 102.09 109.899248 
z
" style="fill:#17becf;"/>
   </g>
   <g id="patch_12">
    <path clip-path="url(#pbf0771def4)" d="M 110.215263 111.13672 
L 118.340526 111.13672 
L 118.340526 112.123644 
L 110.215263 112.123644 
z
" style="fill:#d62728;"/>
   </g>
   <g id="patch_13">
    <path clip-path="url(#pbf0771def4)" d="M 118.340526 111.13672 
L 126.465789 111.13672 
L 126.465789 95.459889 
L 118.340526 95.459889 
z
" style="fill:#ff7f0e;"/>
   </g>
   <g id="patch_14">
    <path clip-path="url(#pbf0771def4)" d="M 126.465789 111.13672 
L 134.591053 111.13672 
L 134.591053 61.985846 
L 126.465789 61.985846 
z
" style="fill:#2ca02c;"/>
   </g>
   <g id="patch_15">
    <path clip-path="url(#pbf0771def4)" d="M 134.591053 111.13672 
L 142.716316 111.13672 
L 142.716316 57.512774 
L 134.591053 57.512774 
z
" style="fill:#9467bd;"/>
   </g>
   <g id="patch_16">
    <path clip-path="url(#pbf0771def4)" d="M 142.716316 111.13672 
L 150.841579 111.13672 
L 150.841579 83.200401 
L 142.716316 83.200401 
z
" style="fill:#8c564b;"/>
   </g>
   <g id="patch_17">
    <path clip-path="url(#pbf0771def4)" d="M 150.841579 111.13672 
L 158.966842 111.13672 
L 158.966842 83.3893 
L 150.841579 83.3893 
z
" style="fill:#e377c2;"/>
   </g>
   <g id="patch_18">
    <path clip-path="url(#pbf0771def4)" d="M 158.966842 111.13672 
L 167.092105 111.13672 
L 167.092105 58.523804 
L 158.966842 58.523804 
z
" style="fill:#7f7f7f;"/>
   </g>
   <g id="matplotlib.axis_1"/>
   <g id="matplotlib.axis_2">
    <g id="ytick_1">
     <g id="line2d_1">
      <defs>
       <path d="M 0 0 
L -3.5 0 
" id="m7a5b70c540" style="stroke:#000000;stroke-width:0.8;"/>
      </defs>
      <g>
       <use style="stroke:#000000;stroke-width:0.8;" x="24.9" xlink:href="#m7a5b70c540" y="111.13672"/>
      </g>
     </g>
     <g id="text_1">
      <text style="font-family:DejaVu Sans;font-size:10px;font-stretch:normal;font-style:normal;font-weight:normal;text-anchor:end;" transform="rotate(-0, 17.9, 114.935939)" x="17.9" y="114.935939">0</text>
     </g>
    </g>
    <g id="ytick_2">
     <g id="line2d_2">
      <g>
       <use style="stroke:#000000;stroke-width:0.8;" x="24.9" xlink:href="#m7a5b70c540" y="74.887722"/>
      </g>
     </g>
     <g id="text_2">
      <text style="font-family:DejaVu Sans;font-size:10px;font-stretch:normal;font-style:normal;font-weight:normal;text-anchor:end;" transform="rotate(-0, 17.9, 78.686941)" x="17.9" y="78.686941">10</text>
     </g>
    </g>
    <g id="ytick_3">
     <g id="line2d_3">
      <g>
       <use style="stroke:#000000;stroke-width:0.8;" x="24.9" xlink:href="#m7a5b70c540" y="38.638724"/>
      </g>
     </g>
     <g id="text_3">
      <text style="font-family:DejaVu Sans;font-size:10px;font-stretch:normal;font-style:normal;font-weight:normal;text-anchor:end;" transform="rotate(-0, 17.9, 42.437942)" x="17.9" y="42.437942">20</text>
     </g>
    </g>
    <g id="text_4">
     <text style="font-family:DejaVu Sans;font-size:12px;font-stretch:normal;font-style:normal;font-weight:normal;" transform="translate(-14.758 125.758125)rotate(-90)">FleQ/Fur iModulon</text>
     <text style="font-family:DejaVu Sans;font-size:12px;font-stretch:normal;font-style:normal;font-weight:normal;" transform="translate(-1.320625 94.079062)rotate(-90)">Activity</text>
    </g>
   </g>
   <g id="PathCollection_1">
    <defs>
     <path d="M 0 1.581139 
C 0.419323 1.581139 0.821528 1.41454 1.118034 1.118034 
C 1.41454 0.821528 1.581139 0.419323 1.581139 0 
C 1.581139 -0.419323 1.41454 -0.821528 1.118034 -1.118034 
C 0.821528 -1.41454 0.419323 -1.581139 0 -1.581139 
C -0.419323 -1.581139 -0.821528 -1.41454 -1.118034 -1.118034 
C -1.41454 -0.821528 -1.581139 -0.419323 -1.581139 0 
C -1.581139 0.419323 -1.41454 0.821528 -1.118034 1.118034 
C -0.821528 1.41454 -0.419323 1.581139 0 1.581139 
z
" id="m095ab9ec25" style="stroke:#000000;"/>
    </defs>
    <g clip-path="url(#pbf0771def4)">
     <use style="stroke:#000000;" x="41.150526" xlink:href="#m095ab9ec25" y="59.812602"/>
     <use style="stroke:#000000;" x="41.150526" xlink:href="#m095ab9ec25" y="60.99184"/>
     <use style="stroke:#000000;" x="49.275789" xlink:href="#m095ab9ec25" y="64.293985"/>
     <use style="stroke:#000000;" x="49.275789" xlink:href="#m095ab9ec25" y="64.812221"/>
     <use style="stroke:#000000;" x="57.401053" xlink:href="#m095ab9ec25" y="73.036448"/>
     <use style="stroke:#000000;" x="57.401053" xlink:href="#m095ab9ec25" y="71.405325"/>
     <use style="stroke:#000000;" x="65.526316" xlink:href="#m095ab9ec25" y="116.94"/>
     <use style="stroke:#000000;" x="65.526316" xlink:href="#m095ab9ec25" y="116.465872"/>
     <use style="stroke:#000000;" x="65.526316" xlink:href="#m095ab9ec25" y="108.472175"/>
     <use style="stroke:#000000;" x="65.526316" xlink:href="#m095ab9ec25" y="102.668835"/>
     <use style="stroke:#000000;" x="73.651579" xlink:href="#m095ab9ec25" y="47.477098"/>
     <use style="stroke:#000000;" x="73.651579" xlink:href="#m095ab9ec25" y="26.34"/>
     <use style="stroke:#000000;" x="81.776842" xlink:href="#m095ab9ec25" y="51.154144"/>
     <use style="stroke:#000000;" x="81.776842" xlink:href="#m095ab9ec25" y="51.55826"/>
     <use style="stroke:#000000;" x="89.902105" xlink:href="#m095ab9ec25" y="45.518696"/>
     <use style="stroke:#000000;" x="89.902105" xlink:href="#m095ab9ec25" y="39.482024"/>
     <use style="stroke:#000000;" x="98.027368" xlink:href="#m095ab9ec25" y="104.377201"/>
     <use style="stroke:#000000;" x="98.027368" xlink:href="#m095ab9ec25" y="91.595749"/>
     <use style="stroke:#000000;" x="106.152632" xlink:href="#m095ab9ec25" y="112.345846"/>
     <use style="stroke:#000000;" x="106.152632" xlink:href="#m095ab9ec25" y="107.452649"/>
     <use style="stroke:#000000;" x="114.277895" xlink:href="#m095ab9ec25" y="113.034433"/>
     <use style="stroke:#000000;" x="114.277895" xlink:href="#m095ab9ec25" y="111.212854"/>
     <use style="stroke:#000000;" x="122.403158" xlink:href="#m095ab9ec25" y="95.942873"/>
     <use style="stroke:#000000;" x="122.403158" xlink:href="#m095ab9ec25" y="94.976905"/>
     <use style="stroke:#000000;" x="130.528421" xlink:href="#m095ab9ec25" y="68.198764"/>
     <use style="stroke:#000000;" x="130.528421" xlink:href="#m095ab9ec25" y="55.772927"/>
     <use style="stroke:#000000;" x="138.653684" xlink:href="#m095ab9ec25" y="56.244848"/>
     <use style="stroke:#000000;" x="138.653684" xlink:href="#m095ab9ec25" y="58.7807"/>
     <use style="stroke:#000000;" x="146.778947" xlink:href="#m095ab9ec25" y="83.218805"/>
     <use style="stroke:#000000;" x="146.778947" xlink:href="#m095ab9ec25" y="83.181997"/>
     <use style="stroke:#000000;" x="154.904211" xlink:href="#m095ab9ec25" y="83.488342"/>
     <use style="stroke:#000000;" x="154.904211" xlink:href="#m095ab9ec25" y="83.290259"/>
     <use style="stroke:#000000;" x="163.029474" xlink:href="#m095ab9ec25" y="57.081309"/>
     <use style="stroke:#000000;" x="163.029474" xlink:href="#m095ab9ec25" y="59.966298"/>
    </g>
   </g>
   <g id="LineCollection_1">
    <path clip-path="url(#pbf0771def4)" d="M 37.087895 126 
L 37.087895 17.28 
" style="fill:none;stroke:#d3d3d3;"/>
    <path clip-path="url(#pbf0771def4)" d="M 167.092105 126 
L 167.092105 17.28 
" style="fill:none;stroke:#d3d3d3;"/>
   </g>
   <g id="LineCollection_2">
    <path clip-path="url(#pbf0771def4)" d="M 24.9 111.13672 
L 179.28 111.13672 
" style="fill:none;stroke:#000000;stroke-width:1.5;"/>
   </g>
   <g id="patch_19">
    <path d="M 24.9 126 
L 24.9 17.28 
" style="fill:none;stroke:#000000;stroke-linecap:square;stroke-linejoin:miter;stroke-width:0.8;"/>
   </g>
   <g id="patch_20">
    <path d="M 179.28 126 
L 179.28 17.28 
" style="fill:none;stroke:#000000;stroke-linecap:square;stroke-linejoin:miter;stroke-width:0.8;"/>
   </g>
   <g id="patch_21">
    <path d="M 24.9 126 
L 179.28 126 
" style="fill:none;stroke:#000000;stroke-linecap:square;stroke-linejoin:miter;stroke-width:0.8;"/>
   </g>
   <g id="patch_22">
    <path d="M 24.9 17.28 
L 179.28 17.28 
" style="fill:none;stroke:#000000;stroke-linecap:square;stroke-linejoin:miter;stroke-width:0.8;"/>
   </g>
   <g id="text_5">
    <text style="font-family:DejaVu Sans;font-size:10px;font-stretch:normal;font-style:normal;font-weight:normal;" transform="translate(95.499708 146.792301)rotate(-45)">ALE</text>
   </g>
   <g id="legend_1">
    <g id="patch_23">
     <path d="M 186.28 114.183125 
L 581.11125 114.183125 
Q 583.11125 114.183125 583.11125 112.183125 
L 583.11125 24.28 
Q 583.11125 22.28 581.11125 22.28 
L 186.28 22.28 
Q 184.28 22.28 184.28 24.28 
L 184.28 112.183125 
Q 184.28 114.183125 186.28 114.183125 
z
" style="fill:#ffffff;opacity:0.8;stroke:#cccccc;stroke-linejoin:miter;"/>
    </g>
    <g id="patch_24">
     <path d="M 188.28 33.878438 
L 208.28 33.878438 
L 208.28 26.878438 
L 188.28 26.878438 
z
" style="fill:#d62728;"/>
    </g>
    <g id="text_6">
     <text style="font-family:DejaVu Sans;font-size:10px;font-stretch:normal;font-style:normal;font-weight:normal;text-anchor:start;" transform="rotate(-0, 216.28, 33.878438)" x="216.28" y="33.878438">ALE - GalactoseA5</text>
    </g>
    <g id="patch_25">
     <path d="M 188.28 48.556563 
L 208.28 48.556563 
L 208.28 41.556563 
L 188.28 41.556563 
z
" style="fill:#ff7f0e;"/>
    </g>
    <g id="text_7">
     <text style="font-family:DejaVu Sans;font-size:10px;font-stretch:normal;font-style:normal;font-weight:normal;text-anchor:start;" transform="rotate(-0, 216.28, 48.556563)" x="216.28" y="48.556563">ALE - GalactoseA6</text>
    </g>
    <g id="patch_26">
     <path d="M 188.28 63.234688 
L 208.28 63.234688 
L 208.28 56.234688 
L 188.28 56.234688 
z
" style="fill:#2ca02c;"/>
    </g>
    <g id="text_8">
     <text style="font-family:DejaVu Sans;font-size:10px;font-stretch:normal;font-style:normal;font-weight:normal;text-anchor:start;" transform="rotate(-0, 216.28, 63.234688)" x="216.28" y="63.234688">ALE - GalactoseA8</text>
    </g>
    <g id="patch_27">
     <path d="M 188.28 77.912813 
L 208.28 77.912813 
L 208.28 70.912813 
L 188.28 70.912813 
z
" style="fill:#9467bd;"/>
    </g>
    <g id="text_9">
     <text style="font-family:DejaVu Sans;font-size:10px;font-stretch:normal;font-style:normal;font-weight:normal;text-anchor:start;" transform="rotate(-0, 216.28, 77.912813)" x="216.28" y="77.912813">ALE - IL_Control</text>
    </g>
    <g id="patch_28">
     <path d="M 188.28 92.869063 
L 208.28 92.869063 
L 208.28 85.869063 
L 188.28 85.869063 
z
" style="fill:#8c564b;"/>
    </g>
    <g id="text_10">
     <text style="font-family:DejaVu Sans;font-size:10px;font-stretch:normal;font-style:normal;font-weight:normal;text-anchor:start;" transform="rotate(-0, 216.28, 92.869063)" x="216.28" y="92.869063">ALE - IL_Control2</text>
    </g>
    <g id="patch_29">
     <path d="M 188.28 107.825313 
L 208.28 107.825313 
L 208.28 100.825313 
L 188.28 100.825313 
z
" style="fill:#e377c2;"/>
    </g>
    <g id="text_11">
     <text style="font-family:DejaVu Sans;font-size:10px;font-stretch:normal;font-style:normal;font-weight:normal;text-anchor:start;" transform="rotate(-0, 216.28, 107.825313)" x="216.28" y="107.825313">ALE - IL_Glc+Ace</text>
    </g>
    <g id="patch_30">
     <path d="M 327.86125 33.878438 
L 347.86125 33.878438 
L 347.86125 26.878438 
L 327.86125 26.878438 
z
" style="fill:#7f7f7f;"/>
    </g>
    <g id="text_12">
     <text style="font-family:DejaVu Sans;font-size:10px;font-stretch:normal;font-style:normal;font-weight:normal;text-anchor:start;" transform="rotate(-0, 355.86125, 33.878438)" x="355.86125" y="33.878438">ALE - IL_Mixed</text>
    </g>
    <g id="patch_31">
     <path d="M 327.86125 48.834688 
L 347.86125 48.834688 
L 347.86125 41.834688 
L 327.86125 41.834688 
z
" style="fill:#bcbd22;"/>
    </g>
    <g id="text_13">
     <text style="font-family:DejaVu Sans;font-size:10px;font-stretch:normal;font-style:normal;font-weight:normal;text-anchor:start;" transform="rotate(-0, 355.86125, 48.834688)" x="355.86125" y="48.834688">ALE - IL_PP5350</text>
    </g>
    <g id="patch_32">
     <path d="M 327.86125 63.790938 
L 347.86125 63.790938 
L 347.86125 56.790938 
L 327.86125 56.790938 
z
" style="fill:#17becf;"/>
    </g>
    <g id="text_14">
     <text style="font-family:DejaVu Sans;font-size:10px;font-stretch:normal;font-style:normal;font-weight:normal;text-anchor:start;" transform="rotate(-0, 355.86125, 63.790938)" x="355.86125" y="63.790938">ALE - IL_T8</text>
    </g>
    <g id="patch_33">
     <path d="M 327.86125 78.747188 
L 347.86125 78.747188 
L 347.86125 71.747188 
L 327.86125 71.747188 
z
" style="fill:#d62728;"/>
    </g>
    <g id="text_15">
     <text style="font-family:DejaVu Sans;font-size:10px;font-stretch:normal;font-style:normal;font-weight:normal;text-anchor:start;" transform="rotate(-0, 355.86125, 78.747188)" x="355.86125" y="78.747188">ALE - IL_T9</text>
    </g>
    <g id="patch_34">
     <path d="M 327.86125 93.703438 
L 347.86125 93.703438 
L 347.86125 86.703438 
L 327.86125 86.703438 
z
" style="fill:#ff7f0e;"/>
    </g>
    <g id="text_16">
     <text style="font-family:DejaVu Sans;font-size:10px;font-stretch:normal;font-style:normal;font-weight:normal;text-anchor:start;" transform="rotate(-0, 355.86125, 93.703438)" x="355.86125" y="93.703438">ALE - IL_TEA_HS</text>
    </g>
    <g id="patch_35">
     <path d="M 456.214375 33.878438 
L 476.214375 33.878438 
L 476.214375 26.878438 
L 456.214375 26.878438 
z
" style="fill:#2ca02c;"/>
    </g>
    <g id="text_17">
     <text style="font-family:DejaVu Sans;font-size:10px;font-stretch:normal;font-style:normal;font-weight:normal;text-anchor:start;" transform="rotate(-0, 484.214375, 33.878438)" x="484.214375" y="33.878438">ALE - IL_TEOH_OAc</text>
    </g>
    <g id="patch_36">
     <path d="M 456.214375 48.834688 
L 476.214375 48.834688 
L 476.214375 41.834688 
L 456.214375 41.834688 
z
" style="fill:#9467bd;"/>
    </g>
    <g id="text_18">
     <text style="font-family:DejaVu Sans;font-size:10px;font-stretch:normal;font-style:normal;font-weight:normal;text-anchor:start;" transform="rotate(-0, 484.214375, 48.834688)" x="484.214375" y="48.834688">ALE - XyloseA1</text>
    </g>
    <g id="patch_37">
     <path d="M 456.214375 63.512812 
L 476.214375 63.512812 
L 476.214375 56.512812 
L 456.214375 56.512812 
z
" style="fill:#8c564b;"/>
    </g>
    <g id="text_19">
     <text style="font-family:DejaVu Sans;font-size:10px;font-stretch:normal;font-style:normal;font-weight:normal;text-anchor:start;" transform="rotate(-0, 484.214375, 63.512812)" x="484.214375" y="63.512812">ALE - XyloseA2</text>
    </g>
    <g id="patch_38">
     <path d="M 456.214375 78.190938 
L 476.214375 78.190938 
L 476.214375 71.190938 
L 456.214375 71.190938 
z
" style="fill:#e377c2;"/>
    </g>
    <g id="text_20">
     <text style="font-family:DejaVu Sans;font-size:10px;font-stretch:normal;font-style:normal;font-weight:normal;text-anchor:start;" transform="rotate(-0, 484.214375, 78.190938)" x="484.214375" y="78.190938">ALE - XyloseA3</text>
    </g>
    <g id="patch_39">
     <path d="M 456.214375 92.869062 
L 476.214375 92.869062 
L 476.214375 85.869062 
L 456.214375 85.869062 
z
" style="fill:#7f7f7f;"/>
    </g>
    <g id="text_21">
     <text style="font-family:DejaVu Sans;font-size:10px;font-stretch:normal;font-style:normal;font-weight:normal;text-anchor:start;" transform="rotate(-0, 484.214375, 92.869062)" x="484.214375" y="92.869062">ALE - XyloseA4</text>
    </g>
   </g>
  </g>
 </g>
 <defs>
  <clipPath id="pbf0771def4">
   <rect height="108.72" width="154.38" x="24.9" y="17.28"/>
  </clipPath>
 </defs>
</svg>
