<?xml version="1.0" encoding="utf-8" standalone="no"?>
<!DOCTYPE svg PUBLIC "-//W3C//DTD SVG 1.1//EN"
  "http://www.w3.org/Graphics/SVG/1.1/DTD/svg11.dtd">
<!-- Created with matplotlib (https://matplotlib.org/) -->
<svg height="360pt" version="1.1" viewBox="0 0 360 360" width="360pt" xmlns="http://www.w3.org/2000/svg" xmlns:xlink="http://www.w3.org/1999/xlink">
 <metadata>
  <rdf:RDF xmlns:cc="http://creativecommons.org/ns#" xmlns:dc="http://purl.org/dc/elements/1.1/" xmlns:rdf="http://www.w3.org/1999/02/22-rdf-syntax-ns#">
   <cc:Work>
    <dc:type rdf:resource="http://purl.org/dc/dcmitype/StillImage"/>
    <dc:date>2022-01-10T11:12:58.640560</dc:date>
    <dc:format>image/svg+xml</dc:format>
    <dc:creator>
     <cc:Agent>
      <dc:title>Matplotlib v3.3.4, https://matplotlib.org/</dc:title>
     </cc:Agent>
    </dc:creator>
   </cc:Work>
  </rdf:RDF>
 </metadata>
 <defs>
  <style type="text/css">*{stroke-linecap:butt;stroke-linejoin:round;}</style>
 </defs>
 <g id="figure_1">
  <g id="patch_1">
   <path d="M 0 360 
L 360 360 
L 360 0 
L 0 0 
z
" style="fill:none;"/>
  </g>
  <g id="axes_1">
   <g id="patch_2">
    <path d="M 45 315 
L 324 315 
L 324 43.2 
L 45 43.2 
z
" style="fill:#ffffff;"/>
   </g>
   <g id="PathCollection_1">
    <defs>
     <path d="M 0 3 
C 0.795609 3 1.55874 2.683901 2.12132 2.12132 
C 2.683901 1.55874 3 0.795609 3 0 
C 3 -0.795609 2.683901 -1.55874 2.12132 -2.12132 
C 1.55874 -2.683901 0.795609 -3 0 -3 
C -0.795609 -3 -1.55874 -2.683901 -2.12132 -2.12132 
C -2.683901 -1.55874 -3 -0.795609 -3 0 
C -3 0.795609 -2.683901 1.55874 -2.12132 2.12132 
C -1.55874 2.683901 -0.795609 3 0 3 
z
" id="m891a91f58c" style="stroke:#bcbd22;"/>
    </defs>
    <g clip-path="url(#pfec03fa281)">
     <use style="fill:#bcbd22;stroke:#bcbd22;" x="287.793834" xlink:href="#m891a91f58c" y="174.176087"/>
    </g>
   </g>
   <g id="PathCollection_2">
    <defs>
     <path d="M 0 3 
C 0.795609 3 1.55874 2.683901 2.12132 2.12132 
C 2.683901 1.55874 3 0.795609 3 0 
C 3 -0.795609 2.683901 -1.55874 2.12132 -2.12132 
C 1.55874 -2.683901 0.795609 -3 0 -3 
C -0.795609 -3 -1.55874 -2.683901 -2.12132 -2.12132 
C -2.683901 -1.55874 -3 -0.795609 -3 0 
C -3 0.795609 -2.683901 1.55874 -2.12132 2.12132 
C -1.55874 2.683901 -0.795609 3 0 3 
z
" id="mf2ee5b60c2" style="stroke:#9467bd;"/>
    </defs>
    <g clip-path="url(#pfec03fa281)">
     <use style="fill:#9467bd;stroke:#9467bd;" x="221.968807" xlink:href="#mf2ee5b60c2" y="223.415217"/>
    </g>
   </g>
   <g id="PathCollection_3">
    <defs>
     <path d="M 0 3 
C 0.795609 3 1.55874 2.683901 2.12132 2.12132 
C 2.683901 1.55874 3 0.795609 3 0 
C 3 -0.795609 2.683901 -1.55874 2.12132 -2.12132 
C 1.55874 -2.683901 0.795609 -3 0 -3 
C -0.795609 -3 -1.55874 -2.683901 -2.12132 -2.12132 
C -2.683901 -1.55874 -3 -0.795609 -3 0 
C -3 0.795609 -2.683901 1.55874 -2.12132 2.12132 
C -1.55874 2.683901 -0.795609 3 0 3 
z
" id="m4ff1c69c2b" style="stroke:#8c564b;"/>
    </defs>
    <g clip-path="url(#pfec03fa281)">
     <use style="fill:#8c564b;stroke:#8c564b;" x="223.315972" xlink:href="#m4ff1c69c2b" y="184.023913"/>
    </g>
   </g>
   <g id="PathCollection_4">
    <defs>
     <path d="M 0 3 
C 0.795609 3 1.55874 2.683901 2.12132 2.12132 
C 2.683901 1.55874 3 0.795609 3 0 
C 3 -0.795609 2.683901 -1.55874 2.12132 -2.12132 
C 1.55874 -2.683901 0.795609 -3 0 -3 
C -0.795609 -3 -1.55874 -2.683901 -2.12132 -2.12132 
C -2.683901 -1.55874 -3 -0.795609 -3 0 
C -3 0.795609 -2.683901 1.55874 -2.12132 2.12132 
C -1.55874 2.683901 -0.795609 3 0 3 
z
" id="mf54c9755db" style="stroke:#7f7f7f;"/>
    </defs>
    <g clip-path="url(#pfec03fa281)">
     <use style="fill:#7f7f7f;stroke:#7f7f7f;" x="280.12235" xlink:href="#mf54c9755db" y="193.871739"/>
     <use style="fill:#7f7f7f;stroke:#7f7f7f;" x="285.304528" xlink:href="#mf54c9755db" y="193.871739"/>
    </g>
   </g>
   <g id="PathCollection_5">
    <defs>
     <path d="M 0 3 
C 0.795609 3 1.55874 2.683901 2.12132 2.12132 
C 2.683901 1.55874 3 0.795609 3 0 
C 3 -0.795609 2.683901 -1.55874 2.12132 -2.12132 
C 1.55874 -2.683901 0.795609 -3 0 -3 
C -0.795609 -3 -1.55874 -2.683901 -2.12132 -2.12132 
C -2.683901 -1.55874 -3 -0.795609 -3 0 
C -3 0.795609 -2.683901 1.55874 -2.12132 2.12132 
C -1.55874 2.683901 -0.795609 3 0 3 
z
" id="md0cba21bc8" style="stroke:#e377c2;"/>
    </defs>
    <g clip-path="url(#pfec03fa281)">
     <use style="fill:#e377c2;stroke:#e377c2;" x="270.667113" xlink:href="#md0cba21bc8" y="252.958696"/>
    </g>
   </g>
   <g id="PathCollection_6">
    <defs>
     <path d="M 0 3 
C 0.795609 3 1.55874 2.683901 2.12132 2.12132 
C 2.683901 1.55874 3 0.795609 3 0 
C 3 -0.795609 2.683901 -1.55874 2.12132 -2.12132 
C 1.55874 -2.683901 0.795609 -3 0 -3 
C -0.795609 -3 -1.55874 -2.683901 -2.12132 -2.12132 
C -2.683901 -1.55874 -3 -0.795609 -3 0 
C -3 0.795609 -2.683901 1.55874 -2.12132 2.12132 
C -1.55874 2.683901 -0.795609 3 0 3 
z
" id="m440f6e43e3" style="stroke:#2ca02c;"/>
    </defs>
    <g clip-path="url(#pfec03fa281)">
     <use style="fill:#2ca02c;stroke:#2ca02c;" x="98.751531" xlink:href="#m440f6e43e3" y="115.08913"/>
     <use style="fill:#2ca02c;stroke:#2ca02c;" x="101.909472" xlink:href="#m440f6e43e3" y="174.176087"/>
     <use style="fill:#2ca02c;stroke:#2ca02c;" x="152.653154" xlink:href="#m440f6e43e3" y="198.795652"/>
    </g>
   </g>
   <g id="PathCollection_7">
    <defs>
     <path d="M 0 3 
C 0.795609 3 1.55874 2.683901 2.12132 2.12132 
C 2.683901 1.55874 3 0.795609 3 0 
C 3 -0.795609 2.683901 -1.55874 2.12132 -2.12132 
C 1.55874 -2.683901 0.795609 -3 0 -3 
C -0.795609 -3 -1.55874 -2.683901 -2.12132 -2.12132 
C -2.683901 -1.55874 -3 -0.795609 -3 0 
C -3 0.795609 -2.683901 1.55874 -2.12132 2.12132 
C -1.55874 2.683901 -0.795609 3 0 3 
z
" id="m5f55ab9b29" style="stroke:#1f77b4;"/>
    </defs>
    <g clip-path="url(#pfec03fa281)">
     <use style="fill:#1f77b4;stroke:#1f77b4;" x="68.25" xlink:href="#m5f55ab9b29" y="65.85"/>
    </g>
   </g>
   <g id="PathCollection_8">
    <defs>
     <path d="M 0 3 
C 0.795609 3 1.55874 2.683901 2.12132 2.12132 
C 2.683901 1.55874 3 0.795609 3 0 
C 3 -0.795609 2.683901 -1.55874 2.12132 -2.12132 
C 1.55874 -2.683901 0.795609 -3 0 -3 
C -0.795609 -3 -1.55874 -2.683901 -2.12132 -2.12132 
C -2.683901 -1.55874 -3 -0.795609 -3 0 
C -3 0.795609 -2.683901 1.55874 -2.12132 2.12132 
C -1.55874 2.683901 -0.795609 3 0 3 
z
" id="mc163172ede" style="stroke:#ff7f0e;"/>
    </defs>
    <g clip-path="url(#pfec03fa281)">
     <use style="fill:#ff7f0e;stroke:#ff7f0e;" x="95.650729" xlink:href="#mc163172ede" y="164.328261"/>
    </g>
   </g>
   <g id="PathCollection_9">
    <defs>
     <path d="M 0 3 
C 0.795609 3 1.55874 2.683901 2.12132 2.12132 
C 2.683901 1.55874 3 0.795609 3 0 
C 3 -0.795609 2.683901 -1.55874 2.12132 -2.12132 
C 1.55874 -2.683901 0.795609 -3 0 -3 
C -0.795609 -3 -1.55874 -2.683901 -2.12132 -2.12132 
C -2.683901 -1.55874 -3 -0.795609 -3 0 
C -3 0.795609 -2.683901 1.55874 -2.12132 2.12132 
C -1.55874 2.683901 -0.795609 3 0 3 
z
" id="m9fb10d1b25" style="stroke:#17becf;"/>
    </defs>
    <g clip-path="url(#pfec03fa281)">
     <use style="fill:#17becf;stroke:#17becf;" x="300.75" xlink:href="#m9fb10d1b25" y="292.35"/>
    </g>
   </g>
   <g id="PathCollection_10">
    <defs>
     <path d="M 0 3 
C 0.795609 3 1.55874 2.683901 2.12132 2.12132 
C 2.683901 1.55874 3 0.795609 3 0 
C 3 -0.795609 2.683901 -1.55874 2.12132 -2.12132 
C 1.55874 -2.683901 0.795609 -3 0 -3 
C -0.795609 -3 -1.55874 -2.683901 -2.12132 -2.12132 
C -2.683901 -1.55874 -3 -0.795609 -3 0 
C -3 0.795609 -2.683901 1.55874 -2.12132 2.12132 
C -1.55874 2.683901 -0.795609 3 0 3 
z
" id="m7cbe3cb768" style="stroke:#d62728;"/>
    </defs>
    <g clip-path="url(#pfec03fa281)">
     <use style="fill:#d62728;stroke:#d62728;" x="176.427024" xlink:href="#m7cbe3cb768" y="272.654348"/>
     <use style="fill:#d62728;stroke:#d62728;" x="191.237667" xlink:href="#m7cbe3cb768" y="243.11087"/>
     <use style="fill:#d62728;stroke:#d62728;" x="195.812621" xlink:href="#m7cbe3cb768" y="257.882609"/>
     <use style="fill:#d62728;stroke:#d62728;" x="227.916132" xlink:href="#m7cbe3cb768" y="257.882609"/>
    </g>
   </g>
   <g id="matplotlib.axis_1">
    <g id="xtick_1">
     <g id="line2d_1">
      <defs>
       <path d="M 0 0 
L 0 3.5 
" id="md22b6e6147" style="stroke:#000000;stroke-width:0.8;"/>
      </defs>
      <g>
       <use style="stroke:#000000;stroke-width:0.8;" x="56.66572" xlink:href="#md22b6e6147" y="315"/>
      </g>
     </g>
     <g id="text_1">
      <text style="font-family:DejaVu Sans;font-size:10px;font-stretch:normal;font-style:normal;font-weight:normal;text-anchor:middle;" transform="rotate(-0, 56.66572, 329.598437)" x="56.66572" y="329.598437">−0.75</text>
     </g>
    </g>
    <g id="xtick_2">
     <g id="line2d_2">
      <g>
       <use style="stroke:#000000;stroke-width:0.8;" x="94.788656" xlink:href="#md22b6e6147" y="315"/>
      </g>
     </g>
     <g id="text_2">
      <text style="font-family:DejaVu Sans;font-size:10px;font-stretch:normal;font-style:normal;font-weight:normal;text-anchor:middle;" transform="rotate(-0, 94.788656, 329.598437)" x="94.788656" y="329.598437">−0.50</text>
     </g>
    </g>
    <g id="xtick_3">
     <g id="line2d_3">
      <g>
       <use style="stroke:#000000;stroke-width:0.8;" x="132.911593" xlink:href="#md22b6e6147" y="315"/>
      </g>
     </g>
     <g id="text_3">
      <text style="font-family:DejaVu Sans;font-size:10px;font-stretch:normal;font-style:normal;font-weight:normal;text-anchor:middle;" transform="rotate(-0, 132.911593, 329.598437)" x="132.911593" y="329.598437">−0.25</text>
     </g>
    </g>
    <g id="xtick_4">
     <g id="line2d_4">
      <g>
       <use style="stroke:#000000;stroke-width:0.8;" x="171.034529" xlink:href="#md22b6e6147" y="315"/>
      </g>
     </g>
     <g id="text_4">
      <text style="font-family:DejaVu Sans;font-size:10px;font-stretch:normal;font-style:normal;font-weight:normal;text-anchor:middle;" transform="rotate(-0, 171.034529, 329.598437)" x="171.034529" y="329.598437">0.00</text>
     </g>
    </g>
    <g id="xtick_5">
     <g id="line2d_5">
      <g>
       <use style="stroke:#000000;stroke-width:0.8;" x="209.157465" xlink:href="#md22b6e6147" y="315"/>
      </g>
     </g>
     <g id="text_5">
      <text style="font-family:DejaVu Sans;font-size:10px;font-stretch:normal;font-style:normal;font-weight:normal;text-anchor:middle;" transform="rotate(-0, 209.157465, 329.598437)" x="209.157465" y="329.598437">0.25</text>
     </g>
    </g>
    <g id="xtick_6">
     <g id="line2d_6">
      <g>
       <use style="stroke:#000000;stroke-width:0.8;" x="247.280402" xlink:href="#md22b6e6147" y="315"/>
      </g>
     </g>
     <g id="text_6">
      <text style="font-family:DejaVu Sans;font-size:10px;font-stretch:normal;font-style:normal;font-weight:normal;text-anchor:middle;" transform="rotate(-0, 247.280402, 329.598437)" x="247.280402" y="329.598437">0.50</text>
     </g>
    </g>
    <g id="xtick_7">
     <g id="line2d_7">
      <g>
       <use style="stroke:#000000;stroke-width:0.8;" x="285.403338" xlink:href="#md22b6e6147" y="315"/>
      </g>
     </g>
     <g id="text_7">
      <text style="font-family:DejaVu Sans;font-size:10px;font-stretch:normal;font-style:normal;font-weight:normal;text-anchor:middle;" transform="rotate(-0, 285.403338, 329.598437)" x="285.403338" y="329.598437">0.75</text>
     </g>
    </g>
    <g id="xtick_8">
     <g id="line2d_8">
      <g>
       <use style="stroke:#000000;stroke-width:0.8;" x="323.526274" xlink:href="#md22b6e6147" y="315"/>
      </g>
     </g>
     <g id="text_8">
      <text style="font-family:DejaVu Sans;font-size:10px;font-stretch:normal;font-style:normal;font-weight:normal;text-anchor:middle;" transform="rotate(-0, 323.526274, 329.598437)" x="323.526274" y="329.598437">1.00</text>
     </g>
    </g>
    <g id="text_9">
     <text style="font-family:DejaVu Sans;font-size:16px;font-stretch:normal;font-style:normal;font-weight:normal;text-anchor:middle;" transform="rotate(-0, 184.5, 347.835625)" x="184.5" y="347.835625">Pearson correlation coefficient</text>
    </g>
   </g>
   <g id="matplotlib.axis_2">
    <g id="ytick_1">
     <g id="line2d_9">
      <defs>
       <path d="M 0 0 
L -3.5 0 
" id="m3b326759dd" style="stroke:#000000;stroke-width:0.8;"/>
      </defs>
      <g>
       <use style="stroke:#000000;stroke-width:0.8;" x="45" xlink:href="#m3b326759dd" y="272.654348"/>
      </g>
     </g>
     <g id="text_10">
      <text style="font-family:DejaVu Sans;font-size:10px;font-stretch:normal;font-style:normal;font-weight:normal;text-anchor:end;" transform="rotate(-0, 38, 276.453567)" x="38" y="276.453567">0.2</text>
     </g>
    </g>
    <g id="ytick_2">
     <g id="line2d_10">
      <g>
       <use style="stroke:#000000;stroke-width:0.8;" x="45" xlink:href="#m3b326759dd" y="223.415217"/>
      </g>
     </g>
     <g id="text_11">
      <text style="font-family:DejaVu Sans;font-size:10px;font-stretch:normal;font-style:normal;font-weight:normal;text-anchor:end;" transform="rotate(-0, 38, 227.214436)" x="38" y="227.214436">0.3</text>
     </g>
    </g>
    <g id="ytick_3">
     <g id="line2d_11">
      <g>
       <use style="stroke:#000000;stroke-width:0.8;" x="45" xlink:href="#m3b326759dd" y="174.176087"/>
      </g>
     </g>
     <g id="text_12">
      <text style="font-family:DejaVu Sans;font-size:10px;font-stretch:normal;font-style:normal;font-weight:normal;text-anchor:end;" transform="rotate(-0, 38, 177.975306)" x="38" y="177.975306">0.4</text>
     </g>
    </g>
    <g id="ytick_4">
     <g id="line2d_12">
      <g>
       <use style="stroke:#000000;stroke-width:0.8;" x="45" xlink:href="#m3b326759dd" y="124.936957"/>
      </g>
     </g>
     <g id="text_13">
      <text style="font-family:DejaVu Sans;font-size:10px;font-stretch:normal;font-style:normal;font-weight:normal;text-anchor:end;" transform="rotate(-0, 38, 128.736175)" x="38" y="128.736175">0.5</text>
     </g>
    </g>
    <g id="ytick_5">
     <g id="line2d_13">
      <g>
       <use style="stroke:#000000;stroke-width:0.8;" x="45" xlink:href="#m3b326759dd" y="75.697826"/>
      </g>
     </g>
     <g id="text_14">
      <text style="font-family:DejaVu Sans;font-size:10px;font-stretch:normal;font-style:normal;font-weight:normal;text-anchor:end;" transform="rotate(-0, 38, 79.497045)" x="38" y="79.497045">0.6</text>
     </g>
    </g>
    <g id="text_15">
     <text style="font-family:DejaVu Sans;font-size:16px;font-stretch:normal;font-style:normal;font-weight:normal;text-anchor:middle;" transform="rotate(-90, 14.769375, 179.1)" x="14.769375" y="179.1">Growth rate (h-1)</text>
    </g>
   </g>
   <g id="LineCollection_1">
    <path clip-path="url(#pfec03fa281)" style="fill:none;stroke:#808080;stroke-width:0.5;"/>
   </g>
   <g id="patch_3">
    <path d="M 45 315 
L 45 43.2 
" style="fill:none;stroke:#000000;stroke-linecap:square;stroke-linejoin:miter;stroke-width:0.8;"/>
   </g>
   <g id="patch_4">
    <path d="M 324 315 
L 324 43.2 
" style="fill:none;stroke:#000000;stroke-linecap:square;stroke-linejoin:miter;stroke-width:0.8;"/>
   </g>
   <g id="patch_5">
    <path d="M 45 315 
L 324 315 
" style="fill:none;stroke:#000000;stroke-linecap:square;stroke-linejoin:miter;stroke-width:0.8;"/>
   </g>
   <g id="patch_6">
    <path d="M 45 43.2 
L 324 43.2 
" style="fill:none;stroke:#000000;stroke-linecap:square;stroke-linejoin:miter;stroke-width:0.8;"/>
   </g>
   <g id="line2d_14">
    <path clip-path="url(#pfec03fa281)" d="M 68.25 142.921461 
L 300.75 251.864853 
" style="fill:none;stroke:#000000;stroke-dasharray:3.7,1.6;stroke-dashoffset:0;"/>
   </g>
   <g id="legend_1">
    <g id="patch_7">
     <path d="M 210.31875 187.72575 
L 318.4 187.72575 
Q 320 187.72575 320 186.12575 
L 320 48.8 
Q 320 47.2 318.4 47.2 
L 210.31875 47.2 
Q 208.71875 47.2 208.71875 48.8 
L 208.71875 186.12575 
Q 208.71875 187.72575 210.31875 187.72575 
z
" style="fill:#ffffff;opacity:0.8;stroke:#cccccc;stroke-linejoin:miter;"/>
    </g>
    <g id="line2d_15">
     <path d="M 211.91875 58.98975 
L 227.91875 58.98975 
" style="fill:none;stroke:#000000;stroke-dasharray:3.7,1.6;stroke-dashoffset:0;"/>
    </g>
    <g id="line2d_16"/>
    <g id="text_16">
     <text style="font-family:DejaVu Sans;font-size:8px;font-stretch:normal;font-style:normal;font-weight:normal;" transform="translate(234.31875 56.47875)">Pearson R = -0.60</text>
     <text style="font-family:DejaVu Sans;font-size:8px;font-stretch:normal;font-style:normal;font-weight:normal;" transform="translate(234.31875 65.437)">p-value = 1.30e-02</text>
    </g>
    <g id="PathCollection_11">
     <g>
      <use style="fill:#bcbd22;stroke:#bcbd22;" x="219.91875" xlink:href="#m891a91f58c" y="75.0795"/>
     </g>
    </g>
    <g id="text_17">
     <text style="font-family:DejaVu Sans;font-size:8px;font-stretch:normal;font-style:normal;font-weight:normal;text-anchor:start;" transform="rotate(-0, 234.31875, 77.1795)" x="234.31875" y="77.1795">Citrate</text>
    </g>
    <g id="PathCollection_12">
     <g>
      <use style="fill:#9467bd;stroke:#9467bd;" x="219.91875" xlink:href="#mf2ee5b60c2" y="86.822"/>
     </g>
    </g>
    <g id="text_18">
     <text style="font-family:DejaVu Sans;font-size:8px;font-stretch:normal;font-style:normal;font-weight:normal;text-anchor:start;" transform="rotate(-0, 234.31875, 88.922)" x="234.31875" y="88.922">Coumarate</text>
    </g>
    <g id="PathCollection_13">
     <g>
      <use style="fill:#8c564b;stroke:#8c564b;" x="219.91875" xlink:href="#m4ff1c69c2b" y="98.5645"/>
     </g>
    </g>
    <g id="text_19">
     <text style="font-family:DejaVu Sans;font-size:8px;font-stretch:normal;font-style:normal;font-weight:normal;text-anchor:start;" transform="rotate(-0, 234.31875, 100.6645)" x="234.31875" y="100.6645">Coumarate+ferulate</text>
    </g>
    <g id="PathCollection_14">
     <g>
      <use style="fill:#7f7f7f;stroke:#7f7f7f;" x="219.91875" xlink:href="#mf54c9755db" y="110.307"/>
     </g>
    </g>
    <g id="text_20">
     <text style="font-family:DejaVu Sans;font-size:8px;font-stretch:normal;font-style:normal;font-weight:normal;text-anchor:start;" transform="rotate(-0, 234.31875, 112.407)" x="234.31875" y="112.407">Ferulate</text>
    </g>
    <g id="PathCollection_15">
     <g>
      <use style="fill:#e377c2;stroke:#e377c2;" x="219.91875" xlink:href="#md0cba21bc8" y="122.0495"/>
     </g>
    </g>
    <g id="text_21">
     <text style="font-family:DejaVu Sans;font-size:8px;font-stretch:normal;font-style:normal;font-weight:normal;text-anchor:start;" transform="rotate(-0, 234.31875, 124.1495)" x="234.31875" y="124.1495">Fructose</text>
    </g>
    <g id="PathCollection_16">
     <g>
      <use style="fill:#2ca02c;stroke:#2ca02c;" x="219.91875" xlink:href="#m440f6e43e3" y="133.792"/>
     </g>
    </g>
    <g id="text_22">
     <text style="font-family:DejaVu Sans;font-size:8px;font-stretch:normal;font-style:normal;font-weight:normal;text-anchor:start;" transform="rotate(-0, 234.31875, 135.892)" x="234.31875" y="135.892">Galactose</text>
    </g>
    <g id="PathCollection_17">
     <g>
      <use style="fill:#1f77b4;stroke:#1f77b4;" x="219.91875" xlink:href="#m5f55ab9b29" y="145.5345"/>
     </g>
    </g>
    <g id="text_23">
     <text style="font-family:DejaVu Sans;font-size:8px;font-stretch:normal;font-style:normal;font-weight:normal;text-anchor:start;" transform="rotate(-0, 234.31875, 147.6345)" x="234.31875" y="147.6345">Gluconate</text>
    </g>
    <g id="PathCollection_18">
     <g>
      <use style="fill:#ff7f0e;stroke:#ff7f0e;" x="219.91875" xlink:href="#mc163172ede" y="157.277"/>
     </g>
    </g>
    <g id="text_24">
     <text style="font-family:DejaVu Sans;font-size:8px;font-stretch:normal;font-style:normal;font-weight:normal;text-anchor:start;" transform="rotate(-0, 234.31875, 159.377)" x="234.31875" y="159.377">Glucose+acetate</text>
    </g>
    <g id="PathCollection_19">
     <g>
      <use style="fill:#17becf;stroke:#17becf;" x="219.91875" xlink:href="#m9fb10d1b25" y="169.0195"/>
     </g>
    </g>
    <g id="text_25">
     <text style="font-family:DejaVu Sans;font-size:8px;font-stretch:normal;font-style:normal;font-weight:normal;text-anchor:start;" transform="rotate(-0, 234.31875, 171.1195)" x="234.31875" y="171.1195">Serine</text>
    </g>
    <g id="PathCollection_20">
     <g>
      <use style="fill:#d62728;stroke:#d62728;" x="219.91875" xlink:href="#m7cbe3cb768" y="180.762"/>
     </g>
    </g>
    <g id="text_26">
     <text style="font-family:DejaVu Sans;font-size:8px;font-stretch:normal;font-style:normal;font-weight:normal;text-anchor:start;" transform="rotate(-0, 234.31875, 182.862)" x="234.31875" y="182.862">Xylose</text>
    </g>
   </g>
  </g>
 </g>
 <defs>
  <clipPath id="pfec03fa281">
   <rect height="271.8" width="279" x="45" y="43.2"/>
  </clipPath>
 </defs>
</svg>
