<?xml version="1.0" encoding="utf-8" standalone="no"?>
<!DOCTYPE svg PUBLIC "-//W3C//DTD SVG 1.1//EN"
  "http://www.w3.org/Graphics/SVG/1.1/DTD/svg11.dtd">
<!-- Created with matplotlib (https://matplotlib.org/) -->
<svg height="144pt" version="1.1" viewBox="0 0 223.2 144" width="223.2pt" xmlns="http://www.w3.org/2000/svg" xmlns:xlink="http://www.w3.org/1999/xlink">
 <metadata>
  <rdf:RDF xmlns:cc="http://creativecommons.org/ns#" xmlns:dc="http://purl.org/dc/elements/1.1/" xmlns:rdf="http://www.w3.org/1999/02/22-rdf-syntax-ns#">
   <cc:Work>
    <dc:type rdf:resource="http://purl.org/dc/dcmitype/StillImage"/>
    <dc:date>2022-01-10T11:23:53.290148</dc:date>
    <dc:format>image/svg+xml</dc:format>
    <dc:creator>
     <cc:Agent>
      <dc:title>Matplotlib v3.3.4, https://matplotlib.org/</dc:title>
     </cc:Agent>
    </dc:creator>
   </cc:Work>
  </rdf:RDF>
 </metadata>
 <defs>
  <style type="text/css">*{stroke-linecap:butt;stroke-linejoin:round;}</style>
 </defs>
 <g id="figure_1">
  <g id="patch_1">
   <path d="M 0 144 
L 223.2 144 
L 223.2 0 
L 0 0 
z
" style="fill:none;"/>
  </g>
  <g id="axes_1">
   <g id="patch_2">
    <path d="M 27.9 126 
L 200.88 126 
L 200.88 17.28 
L 27.9 17.28 
z
" style="fill:#ffffff;"/>
   </g>
   <g id="patch_3">
    <path clip-path="url(#p28c4a6eb6e)" d="M 45.198 95.705437 
L 56.73 95.705437 
L 56.73 95.705437 
L 45.198 95.705437 
z
" style="fill:#d62728;"/>
   </g>
   <g id="patch_4">
    <path clip-path="url(#p28c4a6eb6e)" d="M 56.73 95.705437 
L 68.262 95.705437 
L 68.262 27.408651 
L 56.73 27.408651 
z
" style="fill:#ff7f0e;"/>
   </g>
   <g id="patch_5">
    <path clip-path="url(#p28c4a6eb6e)" d="M 68.262 95.705437 
L 79.794 95.705437 
L 79.794 96.706304 
L 68.262 96.706304 
z
" style="fill:#2ca02c;"/>
   </g>
   <g id="patch_6">
    <path clip-path="url(#p28c4a6eb6e)" d="M 79.794 95.705437 
L 91.326 95.705437 
L 91.326 33.813734 
L 79.794 33.813734 
z
" style="fill:#9467bd;"/>
   </g>
   <g id="patch_7">
    <path clip-path="url(#p28c4a6eb6e)" d="M 91.326 95.705437 
L 102.858 95.705437 
L 102.858 100.163394 
L 91.326 100.163394 
z
" style="fill:#8c564b;"/>
   </g>
   <g id="patch_8">
    <path clip-path="url(#p28c4a6eb6e)" d="M 102.858 95.705437 
L 114.39 95.705437 
L 114.39 95.705437 
L 102.858 95.705437 
z
" style="fill:#e377c2;"/>
   </g>
   <g id="patch_9">
    <path clip-path="url(#p28c4a6eb6e)" d="M 114.39 95.705437 
L 125.922 95.705437 
L 125.922 111.88397 
L 114.39 111.88397 
z
" style="fill:#7f7f7f;"/>
   </g>
   <g id="patch_10">
    <path clip-path="url(#p28c4a6eb6e)" d="M 125.922 95.705437 
L 137.454 95.705437 
L 137.454 101.10882 
L 125.922 101.10882 
z
" style="fill:#bcbd22;"/>
   </g>
   <g id="patch_11">
    <path clip-path="url(#p28c4a6eb6e)" d="M 137.454 95.705437 
L 148.986 95.705437 
L 148.986 96.25152 
L 137.454 96.25152 
z
" style="fill:#17becf;"/>
   </g>
   <g id="patch_12">
    <path clip-path="url(#p28c4a6eb6e)" d="M 148.986 95.705437 
L 160.518 95.705437 
L 160.518 98.477716 
L 148.986 98.477716 
z
" style="fill:#d62728;"/>
   </g>
   <g id="patch_13">
    <path clip-path="url(#p28c4a6eb6e)" d="M 160.518 95.705437 
L 172.05 95.705437 
L 172.05 51.095993 
L 160.518 51.095993 
z
" style="fill:#ff7f0e;"/>
   </g>
   <g id="patch_14">
    <path clip-path="url(#p28c4a6eb6e)" d="M 172.05 95.705437 
L 183.582 95.705437 
L 183.582 100.853623 
L 172.05 100.853623 
z
" style="fill:#2ca02c;"/>
   </g>
   <g id="matplotlib.axis_1"/>
   <g id="matplotlib.axis_2">
    <g id="ytick_1">
     <g id="line2d_1">
      <defs>
       <path d="M 0 0 
L -3.5 0 
" id="mea75a2085f" style="stroke:#000000;stroke-width:0.8;"/>
      </defs>
      <g>
       <use style="stroke:#000000;stroke-width:0.8;" x="27.9" xlink:href="#mea75a2085f" y="95.705437"/>
      </g>
     </g>
     <g id="text_1">
      <text style="font-family:DejaVu Sans;font-size:10px;font-stretch:normal;font-style:normal;font-weight:normal;text-anchor:end;" transform="rotate(-0, 20.9, 99.504656)" x="20.9" y="99.504656">0</text>
     </g>
    </g>
    <g id="ytick_2">
     <g id="line2d_2">
      <g>
       <use style="stroke:#000000;stroke-width:0.8;" x="27.9" xlink:href="#mea75a2085f" y="65.315224"/>
      </g>
     </g>
     <g id="text_2">
      <text style="font-family:DejaVu Sans;font-size:10px;font-stretch:normal;font-style:normal;font-weight:normal;text-anchor:end;" transform="rotate(-0, 20.9, 69.114443)" x="20.9" y="69.114443">10</text>
     </g>
    </g>
    <g id="ytick_3">
     <g id="line2d_3">
      <g>
       <use style="stroke:#000000;stroke-width:0.8;" x="27.9" xlink:href="#mea75a2085f" y="34.925011"/>
      </g>
     </g>
     <g id="text_3">
      <text style="font-family:DejaVu Sans;font-size:10px;font-stretch:normal;font-style:normal;font-weight:normal;text-anchor:end;" transform="rotate(-0, 20.9, 38.72423)" x="20.9" y="38.72423">20</text>
     </g>
    </g>
    <g id="text_4">
     <text style="font-family:DejaVu Sans;font-size:12px;font-stretch:normal;font-style:normal;font-weight:normal;" transform="translate(-11.758 115.914375)rotate(-90)">T6SS iModulon</text>
     <text style="font-family:DejaVu Sans;font-size:12px;font-stretch:normal;font-style:normal;font-weight:normal;" transform="translate(1.679375 94.079062)rotate(-90)">Activity</text>
    </g>
   </g>
   <g id="PathCollection_1">
    <defs>
     <path d="M 0 1.581139 
C 0.419323 1.581139 0.821528 1.41454 1.118034 1.118034 
C 1.41454 0.821528 1.581139 0.419323 1.581139 0 
C 1.581139 -0.419323 1.41454 -0.821528 1.118034 -1.118034 
C 0.821528 -1.41454 0.419323 -1.581139 0 -1.581139 
C -0.419323 -1.581139 -0.821528 -1.41454 -1.118034 -1.118034 
C -1.41454 -0.821528 -1.581139 -0.419323 -1.581139 0 
C -1.581139 0.419323 -1.41454 0.821528 -1.118034 1.118034 
C -0.821528 1.41454 -0.419323 1.581139 0 1.581139 
z
" id="m57ee2c0d08" style="stroke:#000000;"/>
    </defs>
    <g clip-path="url(#p28c4a6eb6e)">
     <use style="stroke:#000000;" x="50.964" xlink:href="#m57ee2c0d08" y="93.988672"/>
     <use style="stroke:#000000;" x="50.964" xlink:href="#m57ee2c0d08" y="96.332871"/>
     <use style="stroke:#000000;" x="50.964" xlink:href="#m57ee2c0d08" y="95.311612"/>
     <use style="stroke:#000000;" x="50.964" xlink:href="#m57ee2c0d08" y="97.188596"/>
     <use style="stroke:#000000;" x="62.496" xlink:href="#m57ee2c0d08" y="27.077044"/>
     <use style="stroke:#000000;" x="62.496" xlink:href="#m57ee2c0d08" y="27.869271"/>
     <use style="stroke:#000000;" x="62.496" xlink:href="#m57ee2c0d08" y="28.348287"/>
     <use style="stroke:#000000;" x="62.496" xlink:href="#m57ee2c0d08" y="26.34"/>
     <use style="stroke:#000000;" x="74.028" xlink:href="#m57ee2c0d08" y="98.165431"/>
     <use style="stroke:#000000;" x="74.028" xlink:href="#m57ee2c0d08" y="96.685809"/>
     <use style="stroke:#000000;" x="74.028" xlink:href="#m57ee2c0d08" y="96.203691"/>
     <use style="stroke:#000000;" x="74.028" xlink:href="#m57ee2c0d08" y="95.770286"/>
     <use style="stroke:#000000;" x="85.56" xlink:href="#m57ee2c0d08" y="34.619244"/>
     <use style="stroke:#000000;" x="85.56" xlink:href="#m57ee2c0d08" y="33.953596"/>
     <use style="stroke:#000000;" x="85.56" xlink:href="#m57ee2c0d08" y="34.522686"/>
     <use style="stroke:#000000;" x="85.56" xlink:href="#m57ee2c0d08" y="32.159412"/>
     <use style="stroke:#000000;" x="97.092" xlink:href="#m57ee2c0d08" y="100.388888"/>
     <use style="stroke:#000000;" x="97.092" xlink:href="#m57ee2c0d08" y="99.9379"/>
     <use style="stroke:#000000;" x="108.624" xlink:href="#m57ee2c0d08" y="92.645514"/>
     <use style="stroke:#000000;" x="108.624" xlink:href="#m57ee2c0d08" y="98.583364"/>
     <use style="stroke:#000000;" x="108.624" xlink:href="#m57ee2c0d08" y="95.887434"/>
     <use style="stroke:#000000;" x="120.156" xlink:href="#m57ee2c0d08" y="106.668653"/>
     <use style="stroke:#000000;" x="120.156" xlink:href="#m57ee2c0d08" y="112.043257"/>
     <use style="stroke:#000000;" x="120.156" xlink:href="#m57ee2c0d08" y="116.94"/>
     <use style="stroke:#000000;" x="131.688" xlink:href="#m57ee2c0d08" y="101.46918"/>
     <use style="stroke:#000000;" x="131.688" xlink:href="#m57ee2c0d08" y="103.023216"/>
     <use style="stroke:#000000;" x="131.688" xlink:href="#m57ee2c0d08" y="98.834065"/>
     <use style="stroke:#000000;" x="143.22" xlink:href="#m57ee2c0d08" y="92.270024"/>
     <use style="stroke:#000000;" x="143.22" xlink:href="#m57ee2c0d08" y="95.381948"/>
     <use style="stroke:#000000;" x="143.22" xlink:href="#m57ee2c0d08" y="101.102589"/>
     <use style="stroke:#000000;" x="154.752" xlink:href="#m57ee2c0d08" y="102.835827"/>
     <use style="stroke:#000000;" x="154.752" xlink:href="#m57ee2c0d08" y="95.987845"/>
     <use style="stroke:#000000;" x="154.752" xlink:href="#m57ee2c0d08" y="96.609475"/>
     <use style="stroke:#000000;" x="166.284" xlink:href="#m57ee2c0d08" y="53.91028"/>
     <use style="stroke:#000000;" x="166.284" xlink:href="#m57ee2c0d08" y="51.81391"/>
     <use style="stroke:#000000;" x="166.284" xlink:href="#m57ee2c0d08" y="47.563789"/>
     <use style="stroke:#000000;" x="177.816" xlink:href="#m57ee2c0d08" y="103.764811"/>
     <use style="stroke:#000000;" x="177.816" xlink:href="#m57ee2c0d08" y="101.200291"/>
     <use style="stroke:#000000;" x="177.816" xlink:href="#m57ee2c0d08" y="97.595767"/>
    </g>
   </g>
   <g id="LineCollection_1">
    <path clip-path="url(#p28c4a6eb6e)" d="M 45.198 126 
L 45.198 17.28 
" style="fill:none;stroke:#d3d3d3;"/>
    <path clip-path="url(#p28c4a6eb6e)" d="M 102.858 126 
L 102.858 17.28 
" style="fill:none;stroke:#d3d3d3;"/>
    <path clip-path="url(#p28c4a6eb6e)" d="M 183.582 126 
L 183.582 17.28 
" style="fill:none;stroke:#d3d3d3;"/>
   </g>
   <g id="LineCollection_2">
    <path clip-path="url(#p28c4a6eb6e)" d="M 27.9 95.705437 
L 200.88 95.705437 
" style="fill:none;stroke:#000000;stroke-width:1.5;"/>
   </g>
   <g id="patch_15">
    <path d="M 27.9 126 
L 27.9 17.28 
" style="fill:none;stroke:#000000;stroke-linecap:square;stroke-linejoin:miter;stroke-width:0.8;"/>
   </g>
   <g id="patch_16">
    <path d="M 200.88 126 
L 200.88 17.28 
" style="fill:none;stroke:#000000;stroke-linecap:square;stroke-linejoin:miter;stroke-width:0.8;"/>
   </g>
   <g id="patch_17">
    <path d="M 27.9 126 
L 200.88 126 
" style="fill:none;stroke:#000000;stroke-linecap:square;stroke-linejoin:miter;stroke-width:0.8;"/>
   </g>
   <g id="patch_18">
    <path d="M 27.9 17.28 
L 200.88 17.28 
" style="fill:none;stroke:#000000;stroke-linecap:square;stroke-linejoin:miter;stroke-width:0.8;"/>
   </g>
   <g id="text_5">
    <text style="font-family:DejaVu Sans;font-size:10px;font-stretch:normal;font-style:normal;font-weight:normal;" transform="translate(39.488679 177.951403)rotate(-45)">Mobile_gene</text>
   </g>
   <g id="text_6">
    <text style="font-family:DejaVu Sans;font-size:10px;font-stretch:normal;font-style:normal;font-weight:normal;" transform="translate(115.07668 171.752065)rotate(-45)">Multistress</text>
   </g>
   <g id="legend_1">
    <g id="patch_19">
     <path d="M 207.88 85.105 
L 736.805 85.105 
Q 738.805 85.105 738.805 83.105 
L 738.805 24.28 
Q 738.805 22.28 736.805 22.28 
L 207.88 22.28 
Q 205.88 22.28 205.88 24.28 
L 205.88 83.105 
Q 205.88 85.105 207.88 85.105 
z
" style="fill:#ffffff;opacity:0.8;stroke:#cccccc;stroke-linejoin:miter;"/>
    </g>
    <g id="patch_20">
     <path d="M 209.88 33.878438 
L 229.88 33.878438 
L 229.88 26.878438 
L 209.88 26.878438 
z
" style="fill:#d62728;"/>
    </g>
    <g id="text_7">
     <text style="font-family:DejaVu Sans;font-size:10px;font-stretch:normal;font-style:normal;font-weight:normal;text-anchor:start;" transform="rotate(-0, 237.88, 33.878438)" x="237.88" y="33.878438">Mobile_gene - 2737_exp</text>
    </g>
    <g id="patch_21">
     <path d="M 209.88 48.834688 
L 229.88 48.834688 
L 229.88 41.834688 
L 209.88 41.834688 
z
" style="fill:#ff7f0e;"/>
    </g>
    <g id="text_8">
     <text style="font-family:DejaVu Sans;font-size:10px;font-stretch:normal;font-style:normal;font-weight:normal;text-anchor:start;" transform="rotate(-0, 237.88, 48.834688)" x="237.88" y="48.834688">Mobile_gene - 2737_reg</text>
    </g>
    <g id="patch_22">
     <path d="M 209.88 63.790938 
L 229.88 63.790938 
L 229.88 56.790938 
L 209.88 56.790938 
z
" style="fill:#2ca02c;"/>
    </g>
    <g id="text_9">
     <text style="font-family:DejaVu Sans;font-size:10px;font-stretch:normal;font-style:normal;font-weight:normal;text-anchor:start;" transform="rotate(-0, 237.88, 63.790938)" x="237.88" y="63.790938">Mobile_gene - 3227_exp</text>
    </g>
    <g id="patch_23">
     <path d="M 209.88 78.747188 
L 229.88 78.747188 
L 229.88 71.747188 
L 209.88 71.747188 
z
" style="fill:#9467bd;"/>
    </g>
    <g id="text_10">
     <text style="font-family:DejaVu Sans;font-size:10px;font-stretch:normal;font-style:normal;font-weight:normal;text-anchor:start;" transform="rotate(-0, 237.88, 78.747188)" x="237.88" y="78.747188">Mobile_gene - 3227_reg</text>
    </g>
    <g id="patch_24">
     <path d="M 379.33625 33.878438 
L 399.33625 33.878438 
L 399.33625 26.878438 
L 379.33625 26.878438 
z
" style="fill:#8c564b;"/>
    </g>
    <g id="text_11">
     <text style="font-family:DejaVu Sans;font-size:10px;font-stretch:normal;font-style:normal;font-weight:normal;text-anchor:start;" transform="rotate(-0, 407.33625, 33.878438)" x="407.33625" y="33.878438">Mobile_gene - mfsR_exp</text>
    </g>
    <g id="patch_25">
     <path d="M 379.33625 48.834688 
L 399.33625 48.834688 
L 399.33625 41.834688 
L 379.33625 41.834688 
z
" style="fill:#e377c2;"/>
    </g>
    <g id="text_12">
     <text style="font-family:DejaVu Sans;font-size:10px;font-stretch:normal;font-style:normal;font-weight:normal;text-anchor:start;" transform="rotate(-0, 407.33625, 48.834688)" x="407.33625" y="48.834688">Multistress - Control</text>
    </g>
    <g id="patch_26">
     <path d="M 379.33625 63.512812 
L 399.33625 63.512812 
L 399.33625 56.512812 
L 379.33625 56.512812 
z
" style="fill:#7f7f7f;"/>
    </g>
    <g id="text_13">
     <text style="font-family:DejaVu Sans;font-size:10px;font-stretch:normal;font-style:normal;font-weight:normal;text-anchor:start;" transform="rotate(-0, 407.33625, 63.512812)" x="407.33625" y="63.512812">Multistress - H2O2_60min</text>
    </g>
    <g id="patch_27">
     <path d="M 379.33625 78.469063 
L 399.33625 78.469063 
L 399.33625 71.469063 
L 379.33625 71.469063 
z
" style="fill:#bcbd22;"/>
    </g>
    <g id="text_14">
     <text style="font-family:DejaVu Sans;font-size:10px;font-stretch:normal;font-style:normal;font-weight:normal;text-anchor:start;" transform="rotate(-0, 407.33625, 78.469063)" x="407.33625" y="78.469063">Multistress - H2O2_7min</text>
    </g>
    <g id="patch_28">
     <path d="M 556.028437 33.878438 
L 576.028437 33.878438 
L 576.028437 26.878438 
L 556.028437 26.878438 
z
" style="fill:#17becf;"/>
    </g>
    <g id="text_15">
     <text style="font-family:DejaVu Sans;font-size:10px;font-stretch:normal;font-style:normal;font-weight:normal;text-anchor:start;" transform="rotate(-0, 584.028437, 33.878438)" x="584.028437" y="33.878438">Multistress - Imipenem_60min</text>
    </g>
    <g id="patch_29">
     <path d="M 556.028437 48.834688 
L 576.028437 48.834688 
L 576.028437 41.834688 
L 556.028437 41.834688 
z
" style="fill:#d62728;"/>
    </g>
    <g id="text_16">
     <text style="font-family:DejaVu Sans;font-size:10px;font-stretch:normal;font-style:normal;font-weight:normal;text-anchor:start;" transform="rotate(-0, 584.028437, 48.834688)" x="584.028437" y="48.834688">Multistress - Imipenem_7min</text>
    </g>
    <g id="patch_30">
     <path d="M 556.028437 63.790938 
L 576.028437 63.790938 
L 576.028437 56.790938 
L 556.028437 56.790938 
z
" style="fill:#ff7f0e;"/>
    </g>
    <g id="text_17">
     <text style="font-family:DejaVu Sans;font-size:10px;font-stretch:normal;font-style:normal;font-weight:normal;text-anchor:start;" transform="rotate(-0, 584.028437, 63.790938)" x="584.028437" y="63.790938">Multistress - NaCl_60min</text>
    </g>
    <g id="patch_31">
     <path d="M 556.028437 78.747188 
L 576.028437 78.747188 
L 576.028437 71.747188 
L 556.028437 71.747188 
z
" style="fill:#2ca02c;"/>
    </g>
    <g id="text_18">
     <text style="font-family:DejaVu Sans;font-size:10px;font-stretch:normal;font-style:normal;font-weight:normal;text-anchor:start;" transform="rotate(-0, 584.028437, 78.747188)" x="584.028437" y="78.747188">Multistress - NaCl_7min</text>
    </g>
   </g>
  </g>
 </g>
 <defs>
  <clipPath id="p28c4a6eb6e">
   <rect height="108.72" width="172.98" x="27.9" y="17.28"/>
  </clipPath>
 </defs>
</svg>
