<?xml version="1.0" encoding="utf-8" standalone="no"?>
<!DOCTYPE svg PUBLIC "-//W3C//DTD SVG 1.1//EN"
  "http://www.w3.org/Graphics/SVG/1.1/DTD/svg11.dtd">
<svg height="360pt" version="1.1" viewBox="0 0 360 360" width="360pt" xmlns="http://www.w3.org/2000/svg" xmlns:xlink="http://www.w3.org/1999/xlink">
 <metadata>
  <rdf:RDF xmlns:cc="http://creativecommons.org/ns#" xmlns:dc="http://purl.org/dc/elements/1.1/" xmlns:rdf="http://www.w3.org/1999/02/22-rdf-syntax-ns#">
   <cc:Work>
    <dc:type rdf:resource="http://purl.org/dc/dcmitype/StillImage"/>
    <dc:date>2022-01-08T12:40:19.924245</dc:date>
    <dc:format>image/svg+xml</dc:format>
    <dc:creator>
     <cc:Agent>
      <dc:title>Matplotlib v3.4.3, https://matplotlib.org/</dc:title>
     </cc:Agent>
    </dc:creator>
   </cc:Work>
  </rdf:RDF>
 </metadata>
 <defs>
  <style type="text/css">*{stroke-linecap:butt;stroke-linejoin:round;}</style>
 </defs>
 <g id="figure_1">
  <g id="patch_1">
   <path d="M 0 360 
L 360 360 
L 360 0 
L 0 0 
z
" style="fill:none;"/>
  </g>
  <g id="axes_1">
   <g id="patch_2">
    <path d="M 45 315 
L 324 315 
L 324 43.2 
L 45 43.2 
z
" style="fill:#ffffff;"/>
   </g>
   <g id="matplotlib.axis_1">
    <g id="xtick_1">
     <g id="line2d_1">
      <defs>
       <path d="M 0 0 
L 0 3.5 
" id="m49e0aad543" style="stroke:#000000;stroke-width:0.8;"/>
      </defs>
      <g>
       <use style="stroke:#000000;stroke-width:0.8;" x="45" xlink:href="#m49e0aad543" y="315"/>
      </g>
     </g>
     <g id="text_1">
      <text style="font-family:DejaVu Sans;font-size:16px;font-stretch:normal;font-style:normal;font-weight:normal;text-anchor:middle;" transform="rotate(-0, 45, 334.1575)" x="45" y="334.1575">0</text>
     </g>
    </g>
    <g id="xtick_2">
     <g id="line2d_2">
      <g>
       <use style="stroke:#000000;stroke-width:0.8;" x="110.647059" xlink:href="#m49e0aad543" y="315"/>
      </g>
     </g>
     <g id="text_2">
      <text style="font-family:DejaVu Sans;font-size:16px;font-stretch:normal;font-style:normal;font-weight:normal;text-anchor:middle;" transform="rotate(-0, 110.647059, 334.1575)" x="110.647059" y="334.1575">20</text>
     </g>
    </g>
    <g id="xtick_3">
     <g id="line2d_3">
      <g>
       <use style="stroke:#000000;stroke-width:0.8;" x="176.294118" xlink:href="#m49e0aad543" y="315"/>
      </g>
     </g>
     <g id="text_3">
      <text style="font-family:DejaVu Sans;font-size:16px;font-stretch:normal;font-style:normal;font-weight:normal;text-anchor:middle;" transform="rotate(-0, 176.294118, 334.1575)" x="176.294118" y="334.1575">40</text>
     </g>
    </g>
    <g id="xtick_4">
     <g id="line2d_4">
      <g>
       <use style="stroke:#000000;stroke-width:0.8;" x="241.941176" xlink:href="#m49e0aad543" y="315"/>
      </g>
     </g>
     <g id="text_4">
      <text style="font-family:DejaVu Sans;font-size:16px;font-stretch:normal;font-style:normal;font-weight:normal;text-anchor:middle;" transform="rotate(-0, 241.941176, 334.1575)" x="241.941176" y="334.1575">60</text>
     </g>
    </g>
    <g id="xtick_5">
     <g id="line2d_5">
      <g>
       <use style="stroke:#000000;stroke-width:0.8;" x="307.588235" xlink:href="#m49e0aad543" y="315"/>
      </g>
     </g>
     <g id="text_5">
      <text style="font-family:DejaVu Sans;font-size:16px;font-stretch:normal;font-style:normal;font-weight:normal;text-anchor:middle;" transform="rotate(-0, 307.588235, 334.1575)" x="307.588235" y="334.1575">80</text>
     </g>
    </g>
    <g id="text_6">
     <text style="font-family:DejaVu Sans;font-size:16px;font-stretch:normal;font-style:normal;font-weight:normal;text-anchor:middle;" transform="rotate(-0, 184.5, 353.6425)" x="184.5" y="353.6425">Components</text>
    </g>
   </g>
   <g id="matplotlib.axis_2">
    <g id="ytick_1">
     <g id="line2d_6">
      <defs>
       <path d="M 0 0 
L -3.5 0 
" id="m09f3de99fc" style="stroke:#000000;stroke-width:0.8;"/>
      </defs>
      <g>
       <use style="stroke:#000000;stroke-width:0.8;" x="45" xlink:href="#m09f3de99fc" y="315"/>
      </g>
     </g>
     <g id="text_7">
      <text style="font-family:DejaVu Sans;font-size:16px;font-stretch:normal;font-style:normal;font-weight:normal;text-anchor:end;" transform="rotate(-0, 38, 321.07875)" x="38" y="321.07875">0.0</text>
     </g>
    </g>
    <g id="ytick_2">
     <g id="line2d_7">
      <g>
       <use style="stroke:#000000;stroke-width:0.8;" x="45" xlink:href="#m09f3de99fc" y="260.64"/>
      </g>
     </g>
     <g id="text_8">
      <text style="font-family:DejaVu Sans;font-size:16px;font-stretch:normal;font-style:normal;font-weight:normal;text-anchor:end;" transform="rotate(-0, 38, 266.71875)" x="38" y="266.71875">0.2</text>
     </g>
    </g>
    <g id="ytick_3">
     <g id="line2d_8">
      <g>
       <use style="stroke:#000000;stroke-width:0.8;" x="45" xlink:href="#m09f3de99fc" y="206.28"/>
      </g>
     </g>
     <g id="text_9">
      <text style="font-family:DejaVu Sans;font-size:16px;font-stretch:normal;font-style:normal;font-weight:normal;text-anchor:end;" transform="rotate(-0, 38, 212.35875)" x="38" y="212.35875">0.4</text>
     </g>
    </g>
    <g id="ytick_4">
     <g id="line2d_9">
      <g>
       <use style="stroke:#000000;stroke-width:0.8;" x="45" xlink:href="#m09f3de99fc" y="151.92"/>
      </g>
     </g>
     <g id="text_10">
      <text style="font-family:DejaVu Sans;font-size:16px;font-stretch:normal;font-style:normal;font-weight:normal;text-anchor:end;" transform="rotate(-0, 38, 157.99875)" x="38" y="157.99875">0.6</text>
     </g>
    </g>
    <g id="ytick_5">
     <g id="line2d_10">
      <g>
       <use style="stroke:#000000;stroke-width:0.8;" x="45" xlink:href="#m09f3de99fc" y="97.56"/>
      </g>
     </g>
     <g id="text_11">
      <text style="font-family:DejaVu Sans;font-size:16px;font-stretch:normal;font-style:normal;font-weight:normal;text-anchor:end;" transform="rotate(-0, 38, 103.63875)" x="38" y="103.63875">0.8</text>
     </g>
    </g>
    <g id="ytick_6">
     <g id="line2d_11">
      <g>
       <use style="stroke:#000000;stroke-width:0.8;" x="45" xlink:href="#m09f3de99fc" y="43.2"/>
      </g>
     </g>
     <g id="text_12">
      <text style="font-family:DejaVu Sans;font-size:16px;font-stretch:normal;font-style:normal;font-weight:normal;text-anchor:end;" transform="rotate(-0, 38, 49.27875)" x="38" y="49.27875">1.0</text>
     </g>
    </g>
    <g id="text_13">
     <text style="font-family:DejaVu Sans;font-size:16px;font-stretch:normal;font-style:normal;font-weight:normal;text-anchor:middle;" transform="rotate(-90, 5.2275, 179.1)" x="5.2275" y="179.1">Cumulative Explained Variance</text>
    </g>
   </g>
   <g id="line2d_12">
    <path clip-path="url(#p967ac6f866)" d="M 45 315 
L 48.282353 300.252252 
L 51.564706 286.951174 
L 54.847059 275.95444 
L 58.129412 266.76145 
L 61.411765 259.032757 
L 64.694118 251.933615 
L 67.976471 245.406153 
L 71.258824 240.353108 
L 74.541176 235.520292 
L 77.823529 230.954795 
L 81.105882 226.536192 
L 84.388235 222.168875 
L 87.670588 217.961627 
L 90.952941 214.348684 
L 94.235294 210.830543 
L 97.517647 207.510095 
L 100.8 204.191811 
L 104.082353 200.949996 
L 107.364706 197.81423 
L 110.647059 194.791876 
L 113.929412 191.790422 
L 117.211765 189.039698 
L 120.494118 186.301125 
L 123.776471 183.659263 
L 127.058824 181.0969 
L 130.341176 178.539113 
L 133.623529 176.081609 
L 136.905882 173.749658 
L 140.188235 171.5058 
L 143.470588 169.305724 
L 146.752941 167.111721 
L 150.035294 164.997473 
L 153.317647 162.935011 
L 156.6 160.875057 
L 159.882353 158.84039 
L 163.164706 156.858722 
L 166.447059 154.884697 
L 169.729412 152.9125 
L 173.011765 150.968785 
L 176.294118 149.037871 
L 179.576471 147.225773 
L 182.858824 145.429448 
L 186.141176 143.691948 
L 189.423529 141.960154 
L 192.705882 140.261085 
L 195.988235 138.56841 
L 199.270588 136.914465 
L 202.552941 135.355055 
L 205.835294 133.831027 
L 209.117647 132.445736 
L 212.4 131.069182 
L 215.682353 129.753192 
L 218.964706 128.450524 
L 222.247059 127.1678 
L 225.529412 125.925324 
L 228.811765 124.790139 
L 232.094118 123.675906 
L 235.376471 122.586898 
L 238.658824 121.498422 
L 241.941176 120.45593 
L 245.223529 119.427471 
L 248.505882 118.429492 
L 251.788235 117.497908 
L 255.070588 116.596441 
L 258.352941 115.698314 
L 261.635294 114.817822 
L 264.917647 113.979356 
L 268.2 113.148553 
L 271.482353 112.368429 
L 274.764706 111.654174 
L 278.047059 110.980421 
L 281.329412 110.330633 
L 284.611765 109.70451 
L 287.894118 109.128163 
L 291.176471 108.552153 
L 294.458824 108.101506 
L 297.741176 107.675087 
L 301.023529 107.266109 
L 304.305882 106.954709 
L 307.588235 106.660474 
L 310.870588 106.41617 
L 314.152941 106.206628 
L 317.435294 106.000965 
L 320.717647 105.841122 
" style="fill:none;stroke:#1f77b4;stroke-linecap:square;stroke-width:1.5;"/>
   </g>
   <g id="line2d_13">
    <path clip-path="url(#p967ac6f866)" d="M 45 315 
L 48.282353 239.124839 
L 51.564706 210.212763 
L 54.847059 185.106575 
L 58.129412 173.280463 
L 61.411765 161.952547 
L 64.694118 152.060484 
L 67.976471 143.209811 
L 71.258824 136.510589 
L 74.541176 130.319721 
L 77.823529 125.152488 
L 81.105882 120.379421 
L 84.388235 116.035968 
L 87.670588 111.993243 
L 90.952941 108.886191 
L 94.235294 106.019649 
L 97.517647 103.350623 
L 100.8 100.992059 
L 104.082353 98.739701 
L 107.364706 96.698409 
L 110.647059 94.719551 
L 113.929412 92.905489 
L 117.211765 91.126777 
L 120.494118 89.4194 
L 123.776471 87.903409 
L 127.058824 86.441389 
L 130.341176 85.070547 
L 133.623529 83.762402 
L 136.905882 82.51806 
L 140.188235 81.364169 
L 143.470588 80.269367 
L 146.752941 79.232595 
L 150.035294 78.244073 
L 153.317647 77.262795 
L 156.6 76.32476 
L 159.882353 75.423799 
L 163.164706 74.533656 
L 166.447059 73.698044 
L 169.729412 72.935704 
L 173.011765 72.186532 
L 176.294118 71.456856 
L 179.576471 70.778294 
L 182.858824 70.114006 
L 186.141176 69.467916 
L 189.423529 68.854775 
L 192.705882 68.278476 
L 195.988235 67.723222 
L 199.270588 67.21672 
L 202.552941 66.724809 
L 205.835294 66.252314 
L 209.117647 65.805413 
L 212.4 65.366161 
L 215.682353 64.941771 
L 218.964706 64.527802 
L 222.247059 64.138963 
L 225.529412 63.755766 
L 228.811765 63.389334 
L 232.094118 63.026657 
L 235.376471 62.681608 
L 238.658824 62.353053 
L 241.941176 62.041873 
L 245.223529 61.739424 
L 248.505882 61.44735 
L 251.788235 61.16749 
L 255.070588 60.890709 
L 258.352941 60.622676 
L 261.635294 60.359869 
L 264.917647 60.103122 
L 268.2 59.852357 
L 271.482353 59.615247 
L 274.764706 59.383935 
L 278.047059 59.155709 
L 281.329412 58.935408 
L 284.611765 58.720317 
L 287.894118 58.508001 
L 291.176471 58.301852 
L 294.458824 58.098806 
L 297.741176 57.897781 
L 301.023529 57.701067 
L 304.305882 57.509724 
L 307.588235 57.320872 
L 310.870588 57.133879 
L 314.152941 56.952757 
L 317.435294 56.772974 
L 320.717647 56.597136 
" style="fill:none;stroke:#ff7f0e;stroke-linecap:square;stroke-width:1.5;"/>
   </g>
   <g id="patch_3">
    <path d="M 45 315 
L 45 43.2 
" style="fill:none;stroke:#000000;stroke-linecap:square;stroke-linejoin:miter;stroke-width:0.8;"/>
   </g>
   <g id="patch_4">
    <path d="M 324 315 
L 324 43.2 
" style="fill:none;stroke:#000000;stroke-linecap:square;stroke-linejoin:miter;stroke-width:0.8;"/>
   </g>
   <g id="patch_5">
    <path d="M 45 315 
L 324 315 
" style="fill:none;stroke:#000000;stroke-linecap:square;stroke-linejoin:miter;stroke-width:0.8;"/>
   </g>
   <g id="patch_6">
    <path d="M 45 43.2 
L 324 43.2 
" style="fill:none;stroke:#000000;stroke-linecap:square;stroke-linejoin:miter;stroke-width:0.8;"/>
   </g>
   <g id="legend_1">
    <g id="patch_7">
     <path d="M 121.400625 309 
L 315.6 309 
Q 318 309 318 306.6 
L 318 272.5725 
Q 318 270.1725 315.6 270.1725 
L 121.400625 270.1725 
Q 119.000625 270.1725 119.000625 272.5725 
L 119.000625 306.6 
Q 119.000625 309 121.400625 309 
z
" style="fill:#ffffff;opacity:0.8;stroke:#cccccc;stroke-linejoin:miter;"/>
    </g>
    <g id="line2d_14">
     <path d="M 123.800625 279.890625 
L 147.800625 279.890625 
" style="fill:none;stroke:#1f77b4;stroke-linecap:square;stroke-width:1.5;"/>
    </g>
    <g id="line2d_15"/>
    <g id="text_14">
     <text style="font-family:DejaVu Sans;font-size:12px;font-stretch:normal;font-style:normal;font-weight:normal;text-anchor:start;" transform="rotate(-0, 157.400625, 284.090625)" x="157.400625" y="284.090625">Independent Components</text>
    </g>
    <g id="line2d_16">
     <path d="M 123.800625 297.504375 
L 147.800625 297.504375 
" style="fill:none;stroke:#ff7f0e;stroke-linecap:square;stroke-width:1.5;"/>
    </g>
    <g id="line2d_17"/>
    <g id="text_15">
     <text style="font-family:DejaVu Sans;font-size:12px;font-stretch:normal;font-style:normal;font-weight:normal;text-anchor:start;" transform="rotate(-0, 157.400625, 301.704375)" x="157.400625" y="301.704375">Principal Components</text>
    </g>
   </g>
  </g>
 </g>
 <defs>
  <clipPath id="p967ac6f866">
   <rect height="271.8" width="279" x="45" y="43.2"/>
  </clipPath>
 </defs>
</svg>
