<?xml version="1.0" encoding="utf-8" standalone="no"?>
<!DOCTYPE svg PUBLIC "-//W3C//DTD SVG 1.1//EN"
  "http://www.w3.org/Graphics/SVG/1.1/DTD/svg11.dtd">
<svg height="288pt" version="1.1" viewBox="0 0 432 288" width="432pt" xmlns="http://www.w3.org/2000/svg" xmlns:xlink="http://www.w3.org/1999/xlink">
 <metadata>
  <rdf:RDF xmlns:cc="http://creativecommons.org/ns#" xmlns:dc="http://purl.org/dc/elements/1.1/" xmlns:rdf="http://www.w3.org/1999/02/22-rdf-syntax-ns#">
   <cc:Work>
    <dc:type rdf:resource="http://purl.org/dc/dcmitype/StillImage"/>
    <dc:date>2022-01-08T12:56:54.429877</dc:date>
    <dc:format>image/svg+xml</dc:format>
    <dc:creator>
     <cc:Agent>
      <dc:title>Matplotlib v3.4.3, https://matplotlib.org/</dc:title>
     </cc:Agent>
    </dc:creator>
   </cc:Work>
  </rdf:RDF>
 </metadata>
 <defs>
  <style type="text/css">*{stroke-linecap:butt;stroke-linejoin:round;}</style>
 </defs>
 <g id="figure_1">
  <g id="patch_1">
   <path d="M 0 288 
L 432 288 
L 432 0 
L 0 0 
z
" style="fill:#ffffff;"/>
  </g>
  <g id="axes_1">
   <g id="matplotlib.axis_1"/>
   <g id="matplotlib.axis_2"/>
   <g id="patch_2">
    <path d="M 308.376 143.28 
C 308.376 136.538165 307.592123 129.819135 306.040171 123.25836 
C 304.488219 116.697584 302.178691 110.339447 299.158145 104.312122 
L 221.4 143.28 
L 308.376 143.28 
z
" style="fill:#1f77b4;stroke:#ffffff;stroke-linejoin:miter;"/>
   </g>
   <g id="patch_3">
    <path d="M 299.158145 104.312122 
C 295.076655 96.167746 289.740829 88.714946 283.346117 82.226719 
C 276.951406 75.738492 269.576852 70.295036 261.492584 66.095745 
L 221.4 143.28 
L 299.158145 104.312122 
z
" style="fill:#ff7f0e;stroke:#ffffff;stroke-linejoin:miter;"/>
   </g>
   <g id="patch_4">
    <path d="M 261.492584 66.095745 
C 252.204639 61.271215 242.121664 58.162556 231.729506 56.919558 
C 221.337347 55.67656 210.805645 56.319513 200.641867 58.817437 
L 221.4 143.28 
L 261.492584 66.095745 
z
" style="fill:#2ca02c;stroke:#ffffff;stroke-linejoin:miter;"/>
   </g>
   <g id="patch_5">
    <path d="M 200.641867 58.817437 
C 190.148384 61.396392 180.226814 65.908445 171.386274 72.122064 
C 162.545735 78.335683 154.940073 86.142736 148.959567 95.142611 
L 221.4 143.28 
L 200.641867 58.817437 
z
" style="fill:#d62728;stroke:#ffffff;stroke-linejoin:miter;"/>
   </g>
   <g id="patch_6">
    <path d="M 148.959567 95.142611 
C 141.448358 106.445991 136.68599 119.35207 135.054645 132.825131 
C 133.4233 146.298192 134.967816 159.967922 139.564244 172.737319 
C 144.160673 185.506716 151.682679 197.024808 161.52662 206.367265 
C 171.370561 215.709721 183.265871 222.619759 196.257947 226.542847 
C 209.250023 230.465935 222.981772 231.294244 236.351217 228.961303 
C 249.720661 226.628362 262.360336 221.198291 273.255901 213.106858 
C 284.151467 205.015424 293.003456 194.485023 299.10149 182.360724 
C 305.199525 170.236425 308.375999 156.851469 308.376 143.280004 
L 221.4 143.28 
L 148.959567 95.142611 
z
" style="fill:#9467bd;stroke:#ffffff;stroke-linejoin:miter;"/>
   </g>
   <g id="text_1">
    <text style="fill:#ffffff;font-family:Arial;font-size:16px;font-stretch:normal;font-style:normal;font-weight:normal;text-anchor:middle;" transform="rotate(-0, 272.184102, 135.403266)" x="272.184102" y="135.403266">7%</text>
   </g>
   <g id="text_2">
    <text style="fill:#ffffff;font-family:Arial;font-size:16px;font-stretch:normal;font-style:normal;font-weight:normal;text-anchor:middle;" transform="rotate(-0, 258.56767, 110.784281)" x="258.56767" y="110.784281">10%</text>
   </g>
   <g id="text_3">
    <text style="fill:#ffffff;font-family:Arial;font-size:16px;font-stretch:normal;font-style:normal;font-weight:normal;text-anchor:middle;" transform="rotate(-0, 227.597703, 95.599985)" x="227.597703" y="95.599985">11%</text>
   </g>
   <g id="text_4">
    <text style="fill:#ffffff;font-family:Arial;font-size:16px;font-stretch:normal;font-style:normal;font-weight:normal;text-anchor:middle;" transform="rotate(-0, 191.391765, 104.721488)" x="191.391765" y="104.721488">12%</text>
   </g>
   <g id="text_5">
    <text style="fill:#ffffff;font-family:Arial;font-size:16px;font-stretch:normal;font-style:normal;font-weight:normal;text-anchor:middle;" transform="rotate(-0, 206.314768, 197.373958)" x="206.314768" y="197.373958">59%</text>
   </g>
  </g>
 </g>
</svg>
