<svg class="main-svg" xmlns="http://www.w3.org/2000/svg" xmlns:xlink="http://www.w3.org/1999/xlink" width="1000" height="1000" style="" viewBox="0 0 1000 1000"><rect x="0" y="0" width="1000" height="1000" style="fill: rgb(255, 255, 255); fill-opacity: 1;"/><defs id="defs-993567"><g class="clips"/><g class="gradients"/><g class="patterns"/></defs><g class="bglayer"/><g class="layer-below"><g class="imagelayer"/><g class="shapelayer"/></g><g class="cartesianlayer"/><g class="polarlayer"/><g class="ternarylayer"/><g class="geolayer"/><g class="funnelarealayer"/><g class="pielayer"><g class="trace" stroke-linejoin="round" style="opacity: 1;"><g class="slice"><path class="surface" d="M426,429l0,-346a346,346 0 0 1 337.325057614911,422.99224314888477Z" style="pointer-events: all; stroke-width: 1; fill: rgb(99, 110, 250); fill-opacity: 1; stroke: rgb(0, 0, 0); stroke-opacity: 1;"/><g class="slicetext"><text data-notex="1" class="slicetext" transform="translate(577.8177760330329,289.9293636543474)" text-anchor="middle" x="0" y="0" style="font-family: 'Open Sans', verdana, arial, sans-serif; font-size: 20px; fill: rgb(255, 255, 255); fill-opacity: 1; white-space: pre;"><tspan class="line" dy="0em" x="0" y="0">Carbon</tspan><tspan class="line" dy="1.3em" x="0" y="0">24</tspan><tspan class="line" dy="2.6em" x="0" y="0">28.6%</tspan></text></g></g><g class="slice"><path class="surface" d="M426,429l-337.325057614911,-76.9922431488848a346,346 0 0 1 337.325057614911,-269.00775685111523Z" style="pointer-events: all; stroke-width: 1; fill: rgb(239, 85, 59); fill-opacity: 1; stroke: rgb(0, 0, 0); stroke-opacity: 1;"/><g class="slicetext"><text data-notex="1" class="slicetext" transform="translate(293.12114163197367,244.37518189259504)" text-anchor="middle" x="0" y="0" style="font-family: 'Open Sans', verdana, arial, sans-serif; font-size: 20px; fill: rgb(68, 68, 68); fill-opacity: 1; white-space: pre;"><tspan class="line" dy="0em" x="0" y="0">Uncharacterized</tspan><tspan class="line" dy="1.3em" x="0" y="0">18</tspan><tspan class="line" dy="2.6em" x="0" y="0">21.4%</tspan></text></g></g><g class="slice"><path class="surface" d="M426,429l-253.63594765311987,235.33976726873817a346,346 0 0 1 -83.6891099617911,-312.332010417623Z" style="pointer-events: all; stroke-width: 1; fill: rgb(0, 204, 150); fill-opacity: 1; stroke: rgb(0, 0, 0); stroke-opacity: 1;"/><g class="slicetext"><text data-notex="1" class="slicetext" transform="translate(198.22280265790542,472.03271608203875)" text-anchor="middle" x="0" y="0" style="font-family: 'Open Sans', verdana, arial, sans-serif; font-size: 20px; fill: rgb(68, 68, 68); fill-opacity: 1; white-space: pre;"><tspan class="line" dy="0em" x="0" y="0">Stress</tspan><tspan class="line" dy="1.3em" x="0" y="0">13</tspan><tspan class="line" dy="2.6em" x="0" y="0">15.5%</tspan></text></g></g><g class="slice"><path class="surface" d="M426,429l-101.9852903461727,330.6281908020047a346,346 0 0 1 -151.65065730694715,-95.28842353326655Z" style="pointer-events: all; stroke-width: 1; fill: rgb(171, 99, 250); fill-opacity: 1; stroke: rgb(0, 0, 0); stroke-opacity: 1;"/><g class="slicetext"><text data-notex="1" class="slicetext" transform="translate(279.76524196191025,643.7312841927385)" text-anchor="middle" x="0" y="0" style="font-family: 'Open Sans', verdana, arial, sans-serif; font-size: 20px; fill: rgb(68, 68, 68); fill-opacity: 1; white-space: pre;"><tspan class="line" dy="0em" x="0" y="0">Amino acid</tspan><tspan class="line" dy="1.3em" x="0" y="0">7</tspan><tspan class="line" dy="2.6em" x="0" y="0">8.33%</tspan></text></g></g><g class="slice"><path class="surface" d="M426,429l51.56862409695652,342.1354658738945a346,346 0 0 1 -153.55391444312923,-11.507275071889751Z" style="pointer-events: all; stroke-width: 1; fill: rgb(255, 161, 90); fill-opacity: 1; stroke: rgb(0, 0, 0); stroke-opacity: 1;"/><g class="slicetext"><text data-notex="1" class="slicetext" transform="translate(274.1746376190974,793.8202995229658)" text-anchor="middle" x="0" y="0" style="font-family: 'Open Sans', verdana, arial, sans-serif; font-size: 20px; fill: rgb(42, 63, 95); fill-opacity: 1; white-space: pre;"><tspan class="line" dy="0em" x="0" y="0">Element homeostasis</tspan><tspan class="line" dy="1.3em" x="0" y="0">6</tspan><tspan class="line" dy="2.6em" x="0" y="0">7.14%</tspan></text></g></g><g class="slice"><path class="surface" d="M426,429l150.12377373467535,311.7352282942369a346,346 0 0 1 -98.55514963771884,30.400237579657585Z" style="pointer-events: all; stroke-width: 1; fill: rgb(25, 211, 243); fill-opacity: 1; stroke: rgb(0, 0, 0); stroke-opacity: 1;"/><g class="slicetext"><text data-notex="1" class="slicetext" transform="translate(661.4384153461731,896.2867536341682)" text-anchor="middle" x="0" y="0" style="font-family: 'Open Sans', verdana, arial, sans-serif; font-size: 20px; fill: rgb(42, 63, 95); fill-opacity: 1; white-space: pre;"><tspan class="line" dy="0em" x="0" y="0">Structural components</tspan><tspan class="line" dy="1.3em" x="0" y="0">4</tspan><tspan class="line" dy="2.6em" x="0" y="0">4.76%</tspan></text></g><path class="textline" stroke-width="2" d="M527.9852903461731,759.6281908020046V914.2867536341682h19" fill="none" style="stroke: rgb(42, 63, 95); stroke-opacity: 1;"/></g><g class="slice"><path class="surface" d="M426,429l215.72747144312203,270.51369293393816a346,346 0 0 1 -65.60369770844667,41.22153536029873Z" style="pointer-events: all; stroke-width: 1; fill: rgb(255, 102, 146); fill-opacity: 1; stroke: rgb(0, 0, 0); stroke-opacity: 1;"/><g class="slicetext"><text data-notex="1" class="slicetext" transform="translate(672.8799734743067,820.2867536341682)" text-anchor="middle" x="0" y="0" style="font-family: 'Open Sans', verdana, arial, sans-serif; font-size: 20px; fill: rgb(42, 63, 95); fill-opacity: 1; white-space: pre;"><tspan class="line" dy="0em" x="0" y="0">Genomic</tspan><tspan class="line" dy="1.3em" x="0" y="0">3</tspan><tspan class="line" dy="2.6em" x="0" y="0">3.57%</tspan></text></g><path class="textline" stroke-width="2" d="M610.0830984743067,721.9665729329862V838.2867536341682h19" fill="none" style="stroke: rgb(42, 63, 95); stroke-opacity: 1;"/></g><g class="slice"><path class="surface" d="M426,429l270.51369293393844,215.7274714431216a346,346 0 0 1 -54.786221490816416,54.78622149081656Z" style="pointer-events: all; stroke-width: 1; fill: rgb(182, 232, 128); fill-opacity: 1; stroke: rgb(0, 0, 0); stroke-opacity: 1;"/><g class="slicetext"><text data-notex="1" class="slicetext" transform="translate(745.4714462905456,744.2867536341682)" text-anchor="middle" x="0" y="0" style="font-family: 'Open Sans', verdana, arial, sans-serif; font-size: 20px; fill: rgb(42, 63, 95); fill-opacity: 1; white-space: pre;"><tspan class="line" dy="0em" x="0" y="0">Translation</tspan><tspan class="line" dy="1.3em" x="0" y="0">3</tspan><tspan class="line" dy="2.6em" x="0" y="0">3.57%</tspan></text></g><path class="textline" stroke-width="2" d="M670.6589462905456,673.6589462905453V762.2867536341682h19" fill="none" style="stroke: rgb(42, 63, 95); stroke-opacity: 1;"/></g><g class="slice"><path class="surface" d="M426,429l299.644789709416,172.9999999999996a346,346 0 0 1 -29.131096775477545,42.727471443122Z" style="pointer-events: all; stroke-width: 1; fill: rgb(255, 151, 255); fill-opacity: 1; stroke: rgb(0, 0, 0); stroke-opacity: 1;"/><g class="slicetext"><text data-notex="1" class="slicetext" transform="translate(823.2536159133344,668.2867536341682)" text-anchor="middle" x="0" y="0" style="font-family: 'Open Sans', verdana, arial, sans-serif; font-size: 20px; fill: rgb(42, 63, 95); fill-opacity: 1; white-space: pre;"><tspan class="line" dy="0em" x="0" y="0">Energy generation</tspan><tspan class="line" dy="1.3em" x="0" y="0">2</tspan><tspan class="line" dy="2.6em" x="0" y="0">2.38%</tspan></text></g><path class="textline" stroke-width="2" d="M711.8786159133344,623.908740090013V686.2867536341682h19" fill="none" style="stroke: rgb(42, 63, 95); stroke-opacity: 1;"/></g><g class="slice"><path class="surface" d="M426,429l322.0823170308949,126.40799443077206a346,346 0 0 1 -22.43752732147891,46.59200556922754Z" style="pointer-events: all; stroke-width: 1; fill: rgb(254, 203, 82); fill-opacity: 1; stroke: rgb(0, 0, 0); stroke-opacity: 1;"/><g class="slicetext"><text data-notex="1" class="slicetext" transform="translate(790.2196032942372,592.2867536341682)" text-anchor="middle" x="0" y="0" style="font-family: 'Open Sans', verdana, arial, sans-serif; font-size: 20px; fill: rgb(42, 63, 95); fill-opacity: 1; white-space: pre;"><tspan class="line" dy="0em" x="0" y="0">Phage</tspan><tspan class="line" dy="1.3em" x="0" y="0">2</tspan><tspan class="line" dy="2.6em" x="0" y="0">2.38%</tspan></text></g><path class="textline" stroke-width="2" d="M737.7352282942372,579.1237737346746V610.2867536341682h19" fill="none" style="stroke: rgb(42, 63, 95); stroke-opacity: 1;"/></g><g class="slice"><path class="surface" d="M426,429l337.32505761491115,76.99224314888394a346,346 0 0 1 -15.242740584016246,49.41575128188812Z" style="pointer-events: all; stroke-width: 1; fill: rgb(198, 202, 253); fill-opacity: 1; stroke: rgb(0, 0, 0); stroke-opacity: 1;"/><g class="slicetext"><text data-notex="1" class="slicetext" transform="translate(885.2844408020048,516.2867536341682)" text-anchor="middle" x="0" y="0" style="font-family: 'Open Sans', verdana, arial, sans-serif; font-size: 20px; fill: rgb(42, 63, 95); fill-opacity: 1; white-space: pre;"><tspan class="line" dy="0em" x="0" y="0">Secondary metabolite</tspan><tspan class="line" dy="1.3em" x="0" y="0">2</tspan><tspan class="line" dy="2.6em" x="0" y="0">2.38%</tspan></text></g></g></g></g><g class="iciclelayer"/><g class="treemaplayer"/><g class="sunburstlayer"/><g class="glimages"/><defs id="topdefs-993567"><g class="clips"/></defs><g class="layer-above"><g class="imagelayer"/><g class="shapelayer"/></g><g class="infolayer"><g class="g-gtitle"/></g></svg>